<svg width="10" height="12" viewBox="0 0 10 12" fill="none" xmlns="http://www.w3.org/2000/svg">
<path d="M8.09632 6.32615C7.81057 6.32615 7.62006 6.51665 7.62006 6.8024V9.65992C7.62006 9.94568 7.42956 10.1362 7.14381 10.1362H1.42876C1.14301 10.1362 0.952508 9.94568 0.952508 9.65992V3.94488C0.952508 3.65912 1.14301 3.46862 1.42876 3.46862H4.28629C4.57204 3.46862 4.76254 3.27812 4.76254 2.99237C4.76254 2.70661 4.57204 2.51611 4.28629 2.51611H1.42876C0.61913 2.51611 0 3.13524 0 3.94488V9.65992C0 10.4696 0.61913 11.0887 1.42876 11.0887H7.14381C7.95344 11.0887 8.57257 10.4696 8.57257 9.65992V6.8024C8.57257 6.56427 8.38207 6.32615 8.09632 6.32615Z" fill="#0A3323"/>
<path d="M6.57788 4.36672H7.97862C8.11816 4.36672 8.2246 4.39534 8.29795 4.45258C8.37129 4.50983 8.40797 4.58765 8.40797 4.68604C8.40797 4.7737 8.37845 4.84794 8.31941 4.90876C8.26217 4.96959 8.17451 5 8.05644 5H6.08145C5.94728 5 5.84263 4.96333 5.76749 4.88998C5.69236 4.81484 5.65479 4.72719 5.65479 4.62701C5.65479 4.5626 5.67894 4.47763 5.72724 4.37208C5.77554 4.26475 5.82832 4.18067 5.88556 4.11984C6.12349 3.87297 6.33816 3.66187 6.52958 3.48656C6.721 3.30945 6.85785 3.19317 6.94014 3.13771C7.08683 3.03395 7.20848 2.9302 7.30509 2.82644C7.40348 2.72089 7.47772 2.61355 7.52781 2.50443C7.57969 2.39351 7.60563 2.28528 7.60563 2.17974C7.60563 2.06524 7.5779 1.96327 7.52244 1.87383C7.46877 1.78259 7.39453 1.71193 7.29972 1.66184C7.20669 1.61175 7.10472 1.5867 6.99381 1.5867C6.75946 1.5867 6.5752 1.68957 6.44103 1.89529C6.42314 1.92213 6.39273 1.99548 6.34979 2.11533C6.30865 2.23519 6.26124 2.32732 6.20757 2.39173C6.15569 2.45613 6.07877 2.48833 5.9768 2.48833C5.88735 2.48833 5.81311 2.45881 5.75407 2.39978C5.69504 2.34074 5.66552 2.26024 5.66552 2.15827C5.66552 2.03483 5.69325 1.90603 5.74871 1.77186C5.80416 1.63769 5.88646 1.51604 5.99558 1.40691C6.1065 1.29779 6.24603 1.21013 6.41419 1.14394C6.58414 1.07596 6.78271 1.04197 7.00991 1.04197C7.28362 1.04197 7.51707 1.0849 7.71028 1.17077C7.83551 1.22802 7.94553 1.30673 8.04034 1.40691C8.13515 1.50709 8.2085 1.62338 8.26038 1.75576C8.31405 1.88635 8.34088 2.02231 8.34088 2.16364C8.34088 2.38546 8.28542 2.58761 8.17451 2.77009C8.06538 2.95077 7.95358 3.09299 7.83908 3.19675C7.72459 3.29872 7.53228 3.45972 7.26215 3.67976C6.99381 3.8998 6.80955 4.07065 6.70937 4.19229C6.66643 4.24059 6.6226 4.29874 6.57788 4.36672Z" fill="#0A3323"/>
</svg>
