<svg width="10" height="10" viewBox="0 0 10 10" fill="none" xmlns="http://www.w3.org/2000/svg">
<g clip-path="url(#clip0_704_5763)">
<path d="M8.75052 5.00003C8.75052 4.88953 8.70662 4.78354 8.62848 4.7054C8.55034 4.62726 8.44436 4.58337 8.33385 4.58337C8.22335 4.58337 8.11737 4.62726 8.03923 4.7054C7.96109 4.78354 7.91719 4.88953 7.91719 5.00003V5.95837L6.15052 3.87503C6.08674 3.80048 5.99869 3.75082 5.90189 3.73482C5.80509 3.71881 5.70574 3.73748 5.62135 3.78753L3.84219 4.87503L1.98802 2.65003C1.953 2.6079 1.91003 2.57308 1.86155 2.54755C1.81307 2.52203 1.76004 2.5063 1.70549 2.50127C1.65093 2.49624 1.59592 2.50201 1.5436 2.51824C1.49127 2.53447 1.44265 2.56085 1.40052 2.59587C1.35839 2.63088 1.32357 2.67386 1.29804 2.72234C1.27252 2.77081 1.25679 2.82384 1.25176 2.8784C1.24673 2.93295 1.2525 2.98796 1.26873 3.04029C1.28496 3.09262 1.31133 3.14123 1.34635 3.18337L3.42969 5.68337C3.49312 5.75963 3.58168 5.81076 3.67945 5.82756C3.77721 5.84437 3.87776 5.82574 3.96302 5.77503L5.74635 4.7042L7.41302 6.6667H6.25052C6.14001 6.6667 6.03403 6.7106 5.95589 6.78874C5.87775 6.86688 5.83385 6.97286 5.83385 7.08337C5.83385 7.19387 5.87775 7.29985 5.95589 7.37799C6.03403 7.45613 6.14001 7.50003 6.25052 7.50003H8.33385C8.38513 7.49877 8.43584 7.48891 8.48385 7.47087L8.54219 7.43753C8.56391 7.42658 8.5848 7.41405 8.60469 7.40003C8.62751 7.37942 8.64717 7.35555 8.66302 7.3292C8.67698 7.31073 8.68951 7.29123 8.70052 7.27087C8.71072 7.24833 8.71773 7.2245 8.72135 7.20003C8.73825 7.1633 8.74814 7.12373 8.75052 7.08337V5.00003Z" fill="#FF4228"/>
</g>
<defs>
<clipPath id="clip0_704_5763">
<rect width="10" height="10" fill="white"/>
</clipPath>
</defs>
</svg>
