<svg width="10" height="10" viewBox="0 0 10 10" fill="none" xmlns="http://www.w3.org/2000/svg">
<g clip-path="url(#clip0_704_5758)">
<path d="M8.75052 4.99948C8.75052 5.10999 8.70662 5.21597 8.62848 5.29411C8.55034 5.37225 8.44436 5.41615 8.33385 5.41615C8.22335 5.41615 8.11737 5.37225 8.03923 5.29411C7.96109 5.21597 7.91719 5.10999 7.91719 4.99948L7.91719 4.04115L6.15052 6.12448C6.08674 6.19903 5.99869 6.24869 5.90189 6.26469C5.80509 6.2807 5.70574 6.26203 5.62135 6.21198L3.84219 5.12448L1.98802 7.34948C1.953 7.39161 1.91003 7.42643 1.86155 7.45196C1.81307 7.47748 1.76004 7.49321 1.70549 7.49824C1.65093 7.50327 1.59592 7.4975 1.5436 7.48127C1.49127 7.46504 1.44265 7.43867 1.40052 7.40365C1.35839 7.36863 1.32357 7.32565 1.29804 7.27718C1.27252 7.2287 1.25679 7.17567 1.25176 7.12111C1.24673 7.06656 1.2525 7.01155 1.26873 6.95922C1.28496 6.9069 1.31133 6.85828 1.34635 6.81615L3.42969 4.31615C3.49312 4.23988 3.58168 4.18875 3.67945 4.17195C3.77721 4.15514 3.87776 4.17377 3.96302 4.22448L5.74635 5.29531L7.41302 3.33281L6.25052 3.33281C6.14001 3.33281 6.03403 3.28892 5.95589 3.21078C5.87775 3.13263 5.83385 3.02665 5.83385 2.91615C5.83385 2.80564 5.87775 2.69966 5.95589 2.62152C6.03403 2.54338 6.14001 2.49948 6.25052 2.49948L8.33385 2.49948C8.38513 2.50074 8.43584 2.5106 8.48385 2.52865L8.54219 2.56198C8.56391 2.57293 8.5848 2.58546 8.60469 2.59948C8.62751 2.62009 8.64717 2.64396 8.66302 2.67031C8.67698 2.68878 8.68951 2.70828 8.70052 2.72865C8.71072 2.75118 8.71773 2.77502 8.72135 2.79948C8.73825 2.83622 8.74814 2.87578 8.75052 2.91615L8.75052 4.99948Z" fill="#3CD839"/>
</g>
<defs>
<clipPath id="clip0_704_5758">
<rect width="10" height="10" fill="white"/>
</clipPath>
</defs>
</svg>
