<?xml version="1.0" encoding="UTF-8"?>
<svg id="Capa_1" data-name="Capa 1" xmlns="http://www.w3.org/2000/svg" xmlns:xlink="http://www.w3.org/1999/xlink" viewBox="0 0 100 100">
  <defs>
    <style>
      .cls-1, .cls-2 {
        fill: none;
      }

      .cls-3 {
        fill: #ff864b;
      }

      .cls-2 {
        clip-path: url(#clippath);
      }

      .cls-4 {
        fill: #6c9fff;
        opacity: .3;
      }
    </style>
    <clipPath id="clippath">
      <path class="cls-1" d="m95.86,74.15c0,7.05,0,14.1,0,21.15,0,2.74-1.93,4.67-4.68,4.67-8.15,0-73.64-.05-81.58.03-2.48.03-4.89-1.78-4.88-4.84.02-4.43,0-8.86,0-13.29,0-9.15.01-18.3,0-27.46,0-3.21.64-6.2,2.61-8.8,1.25-1.64,2.71-3.1,4.08-4.63,3.15-3.52,6.31-7.02,9.46-10.53,2.79-3.11,5.59-6.21,8.39-9.32,3.53-3.93,7.06-7.85,10.59-11.78,2.31-2.57,4.6-5.15,6.93-7.69,1.99-2.18,4.98-2.23,6.99-.06,2.96,3.19,5.83,6.44,8.75,9.67,3.02,3.35,6.05,6.69,9.07,10.04,3.16,3.51,6.31,7.02,9.47,10.53,2.92,3.24,5.87,6.47,8.77,9.72,1.33,1.49,2.78,2.87,3.88,4.55,1.43,2.21,2.15,4.63,2.16,7.25.01,6.93,0,13.85,0,20.78Z"/>
    </clipPath>
  </defs>
  <path class="cls-4" d="m95.86,74.15c0,7.05,0,14.1,0,21.15,0,2.74-1.93,4.67-4.68,4.67-8.15,0-73.64-.05-81.58.03-2.48.03-4.89-1.78-4.88-4.84.02-4.43,0-8.86,0-13.29,0-9.15.01-18.3,0-27.46,0-3.21.64-6.2,2.61-8.8,1.25-1.64,2.71-3.1,4.08-4.63,3.15-3.52,6.31-7.02,9.46-10.53,2.79-3.11,5.59-6.21,8.39-9.32,3.53-3.93,7.06-7.85,10.59-11.78,2.31-2.57,4.6-5.15,6.93-7.69,1.99-2.18,4.98-2.23,6.99-.06,2.96,3.19,5.83,6.44,8.75,9.67,3.02,3.35,6.05,6.69,9.07,10.04,3.16,3.51,6.31,7.02,9.47,10.53,2.92,3.24,5.87,6.47,8.77,9.72,1.33,1.49,2.78,2.87,3.88,4.55,1.43,2.21,2.15,4.63,2.16,7.25.01,6.93,0,13.85,0,20.78Z"/>
  <g class="cls-2">
    <rect class="cls-3" x="-7.71" y="25.14" width="116" height="74.86"/>
  </g>
</svg>