<?xml version="1.0" encoding="UTF-8"?>
<svg id="Capa_1" data-name="Capa 1" xmlns="http://www.w3.org/2000/svg" viewBox="0 0 48 48">
  <defs>
    <style>
      .cls-1 {
        fill: #0b3323;
      }
    </style>
  </defs>
  <path class="cls-1" d="m31.3,21.35c.75,0,1.39-.26,1.91-.79s.79-1.16.79-1.91-.26-1.39-.79-1.91-1.16-.79-1.91-.79-1.39.26-1.91.79-.79,1.16-.79,1.91.26,1.39.79,1.91,1.16.79,1.91.79Zm-14.6,0c.75,0,1.39-.26,1.91-.79s.79-1.16.79-1.91-.26-1.39-.79-1.91-1.16-.79-1.91-.79-1.39.26-1.91.79-.79,1.16-.79,1.91.26,1.39.79,1.91,1.16.79,1.91.79Zm7.3,13.6c2.2,0,4.23-.59,6.08-1.78s3.19-2.79,4.03-4.83h-2.6c-.77,1.33-1.82,2.36-3.15,3.08s-2.78,1.08-4.33,1.08-3-.35-4.35-1.05-2.39-1.73-3.13-3.1h-2.65c.87,2.03,2.22,3.64,4.05,4.83s3.85,1.78,6.05,1.78Zm0,9.05c-2.77,0-5.37-.53-7.8-1.58s-4.55-2.48-6.35-4.28-3.23-3.92-4.28-6.35-1.58-5.03-1.58-7.8.53-5.37,1.58-7.8,2.48-4.55,4.28-6.35,3.92-3.23,6.35-4.28,5.03-1.58,7.8-1.58,5.37.53,7.8,1.58,4.55,2.48,6.35,4.28,3.23,3.92,4.28,6.35,1.58,5.03,1.58,7.8-.53,5.37-1.58,7.8-2.48,4.55-4.28,6.35-3.92,3.23-6.35,4.28-5.03,1.58-7.8,1.58Zm0-3c4.75,0,8.77-1.65,12.06-4.94,3.29-3.29,4.94-7.31,4.94-12.06s-1.65-8.77-4.94-12.06c-3.29-3.29-7.31-4.94-12.06-4.94s-8.77,1.65-12.06,4.94c-3.29,3.29-4.94,7.31-4.94,12.06s1.65,8.77,4.94,12.06c3.29,3.29,7.31,4.94,12.06,4.94Z"/>
</svg>