<?xml version="1.0" encoding="UTF-8"?>
<svg id="Capa_1" data-name="Capa 1" xmlns="http://www.w3.org/2000/svg" viewBox="0 0 48 48">
  <defs>
    <style>
      .cls-1 {
        fill: #0b3323;
      }
    </style>
  </defs>
  <path class="cls-1" d="m31.3,21.35c.75,0,1.39-.26,1.91-.79s.79-1.16.79-1.91-.26-1.39-.79-1.91-1.16-.79-1.91-.79-1.39.26-1.91.79-.79,1.16-.79,1.91.26,1.39.79,1.91,1.16.79,1.91.79Zm-14.6,0c.75,0,1.39-.26,1.91-.79s.79-1.16.79-1.91-.26-1.39-.79-1.91-1.16-.79-1.91-.79-1.39.26-1.91.79-.79,1.16-.79,1.91.26,1.39.79,1.91,1.16.79,1.91.79Zm1,9.7h12.65v-2.45h-12.65v2.45Zm6.3,12.95c-2.77,0-5.37-.53-7.8-1.58s-4.55-2.48-6.35-4.28-3.23-3.92-4.28-6.35-1.58-5.03-1.58-7.8.53-5.37,1.58-7.8,2.48-4.55,4.28-6.35,3.92-3.23,6.35-4.28,5.03-1.58,7.8-1.58,5.37.53,7.8,1.58,4.55,2.48,6.35,4.28,3.23,3.92,4.28,6.35,1.58,5.03,1.58,7.8-.53,5.37-1.58,7.8-2.48,4.55-4.28,6.35-3.92,3.23-6.35,4.28-5.03,1.58-7.8,1.58Zm0-3c4.75,0,8.77-1.65,12.06-4.94,3.29-3.29,4.94-7.31,4.94-12.06s-1.65-8.77-4.94-12.06c-3.29-3.29-7.31-4.94-12.06-4.94s-8.77,1.65-12.06,4.94c-3.29,3.29-4.94,7.31-4.94,12.06s1.65,8.77,4.94,12.06c3.29,3.29,7.31,4.94,12.06,4.94Z"/>
</svg>