<svg width="38" height="38" viewBox="0 0 38 38" fill="none" xmlns="http://www.w3.org/2000/svg">
<path d="M29.8596 23.9774V11.4905L21.7159 5.78999L13.5723 11.4905V16.493H11.2456V10.3272L21.7159 2.84277L32.1863 10.3272V23.9774H29.8596ZM22.4915 13.7009H24.0427V12.1498H22.4915V13.7009ZM19.3892 13.7009H20.9404V12.1498H19.3892V13.7009ZM22.4915 16.8033H24.0427V15.2521H22.4915V16.8033ZM19.3892 16.8033H20.9404V15.2521H19.3892V16.8033ZM21.9486 35.3397L9.8883 31.8884V34.0988H1.55078V18.8198H13.5335L23.4222 22.5426C24.1203 22.8011 24.7084 23.2212 25.1867 23.8029C25.665 24.3846 25.9041 25.2184 25.9041 26.3042H30.3249C31.4107 26.3042 32.3156 26.692 33.0395 27.4675C33.7633 28.2431 34.1253 29.2902 34.1253 30.6087V31.6169L21.9486 35.3397ZM3.87753 31.772H7.52277V21.1465H3.87753V31.772ZM21.7935 32.9354L31.721 29.9106C31.5659 29.4194 31.372 29.0833 31.1393 28.9024C30.9066 28.7214 30.6352 28.6309 30.3249 28.6309H22.2976C21.5221 28.6309 20.8046 28.5792 20.1454 28.4758C19.4861 28.3724 18.8592 28.2302 18.2646 28.0492L15.1235 27.0798L15.9766 24.8306L18.8075 25.7613C19.4538 25.9681 20.0678 26.1103 20.6495 26.1878C21.2312 26.2654 22.1554 26.3042 23.4222 26.3042C23.4222 25.9939 23.3641 25.6902 23.2477 25.3929C23.1314 25.0956 22.931 24.8823 22.6466 24.753L13.1458 21.1465H9.8883V29.4453L21.7935 32.9354Z" fill="#0A3323"/>
</svg>
