<svg width="22" height="16" viewBox="0 0 22 16" fill="none" xmlns="http://www.w3.org/2000/svg">
<path d="M1.5 16C1.11667 16 0.770833 15.8458 0.4625 15.5375C0.154167 15.2292 0 14.8833 0 14.5V1.5C0 1.11667 0.154167 0.770833 0.4625 0.4625C0.770833 0.154167 1.11667 0 1.5 0H7.9C8.1074 0 8.30508 0.0416667 8.49305 0.125C8.68102 0.208333 8.8424 0.3174 8.9772 0.4522L10.025 1.5H18.5C18.8833 1.5 19.2292 1.65417 19.5375 1.9625C19.8458 2.27083 20 2.61667 20 3H9.375L7.875 1.5H1.5V14.5L3.75 5.625C3.83333 5.29167 4.01522 5.02083 4.29565 4.8125C4.57608 4.60417 4.88587 4.5 5.225 4.5H19.575C20.0583 4.5 20.4542 4.69167 20.7625 5.075C21.0708 5.45833 21.1583 5.89167 21.025 6.375L18.825 14.85C18.725 15.25 18.5417 15.5417 18.275 15.725C18.0083 15.9083 17.6667 16 17.25 16H1.5ZM3.075 14.5H17.375L19.475 6H5.175L3.075 14.5Z" fill="#0A3323"/>
</svg>
