<svg width="500" height="375" viewBox="0 0 500 375" fill="none" xmlns="http://www.w3.org/2000/svg">
<g clip-path="url(#clip0_1159_2522)">
<rect width="500" height="375" fill="white"/>
<path d="M203.256 21.073H27.1953V204.79H203.256V21.073Z" fill="#F4F4F4"/>
<path d="M27.1977 21.073H25.1797V204.79H27.1977V21.073Z" fill="#F4F4F4"/>
<path opacity="0.05" d="M27.1977 21.073H25.1797V204.79H27.1977V21.073Z" fill="#292A2E"/>
<path opacity="0.05" d="M69.8466 147.669V99.6033H107.579V127.529H166.027V176.974H190.868V204.791H166.027H161.241H35.6641V147.669H69.8466Z" fill="#292A2E"/>
<path opacity="0.34" d="M102.735 104.822H75.2578V110.041H102.735V104.822Z" fill="#FFFFFA"/>
<path opacity="0.34" d="M102.735 115.636H75.2578V120.856H102.735V115.636Z" fill="#FFFFFA"/>
<path opacity="0.34" d="M102.735 126.451H75.2578V131.671H102.735V126.451Z" fill="#FFFFFA"/>
<path opacity="0.34" d="M45.6035 152.735H40.5391V157.954H45.6035V152.735Z" fill="#FFFFFA"/>
<path opacity="0.34" d="M45.6035 163.55H40.5391V168.769H45.6035V163.55Z" fill="#FFFFFA"/>
<path opacity="0.34" d="M45.6035 174.365H40.5391V179.584H45.6035V174.365Z" fill="#FFFFFA"/>
<path opacity="0.34" d="M54.9707 152.735H49.9062V157.954H54.9707V152.735Z" fill="#FFFFFA"/>
<path opacity="0.34" d="M54.9707 163.55H49.9062V168.769H54.9707V163.55Z" fill="#FFFFFA"/>
<path opacity="0.34" d="M54.9707 174.365H49.9062V179.584H54.9707V174.365Z" fill="#FFFFFA"/>
<path opacity="0.34" d="M64.0879 152.735H59.0234V157.954H64.0879V152.735Z" fill="#FFFFFA"/>
<path opacity="0.34" d="M64.0879 163.55H59.0234V168.769H64.0879V163.55Z" fill="#FFFFFA"/>
<path opacity="0.34" d="M64.0879 174.365H59.0234V179.584H64.0879V174.365Z" fill="#FFFFFA"/>
<path d="M27.1953 111.901H62.6218V21.073H65.5519V111.901H161.242V21.073H164.172V111.901H203.256V114.958H164.172V204.79H161.242V114.958H65.5519V204.79H62.6218V114.958H27.1953V111.901Z" fill="white"/>
<path d="M210.272 204.569H20.1836V210.678H210.272V204.569Z" fill="#F4F4F4"/>
<path opacity="0.1" d="M210.272 204.569H20.1836V210.678H210.272V204.569Z" fill="#292A2E"/>
<path opacity="0.1" d="M20.1818 204.569H17.4375V210.678H20.1818V204.569Z" fill="#292A2E"/>
<path opacity="0.1" d="M20.1818 204.569H17.4375V210.678H20.1818V204.569Z" fill="#292A2E"/>
<path d="M25.1826 28.8955L203.262 28.8955V24.3529L25.1826 24.3529V28.8955Z" fill="white"/>
<path d="M25.1826 37.3801L203.262 37.3801V32.8375L25.1826 32.8375V37.3801Z" fill="white"/>
<path d="M25.1826 45.864L203.262 45.864V41.3214L25.1826 41.3214V45.864Z" fill="white"/>
<path d="M25.1826 54.3486L203.262 54.3486V49.806L25.1826 49.806V54.3486Z" fill="white"/>
<path d="M25.1826 62.834L203.262 62.834V58.2914L25.1826 58.2914V62.834Z" fill="white"/>
<path d="M44.0933 67.9568H46.7617L46.7617 21.0723H44.0933L44.0933 67.9568Z" fill="white"/>
<path d="M45.2018 74.69C47.2268 74.69 48.8684 72.9773 48.8684 70.8644C48.8684 68.7516 47.2268 67.0388 45.2018 67.0388C43.1767 67.0388 41.5352 68.7516 41.5352 70.8644C41.5352 72.9773 43.1767 74.69 45.2018 74.69Z" fill="white"/>
<path d="M429.836 20.0469H355.758V120.663H429.836V20.0469Z" fill="#F4F4F4"/>
<path d="M429.835 120.663H432.238V20.0468H429.835V120.663Z" fill="#F4F4F4"/>
<path opacity="0.05" d="M429.835 120.663H432.238V20.0468H429.835V120.663Z" fill="#292A2E"/>
<path opacity="0.05" d="M416.344 38.3748H369.254V102.334H416.344V38.3748Z" fill="#292A2E"/>
<path opacity="0.03" d="M416.341 38.3748H413.887V102.334H416.341V38.3748Z" fill="#292A2E"/>
<path d="M490.42 145.406H429.836V209.206H490.42V145.406Z" fill="#F4F4F4"/>
<path opacity="0.05" d="M479.383 157.028H440.871V197.584H479.383V157.028Z" fill="#292A2E"/>
<path d="M490.421 209.205H492.824V145.405H490.421V209.205Z" fill="#F4F4F4"/>
<path opacity="0.05" d="M490.421 209.205H492.824V145.405H490.421V209.205Z" fill="#292A2E"/>
<path opacity="0.03" d="M479.384 157.028H476.93V197.584H479.384V157.028Z" fill="#292A2E"/>
<path d="M289.512 253.477C289.433 253.477 289.354 253.459 289.281 253.421L170 191.898C169.842 191.817 169.734 191.657 169.714 191.474C169.694 191.291 169.764 191.11 169.901 190.994L289.144 88.8983C289.335 88.7335 289.611 88.7335 289.804 88.8983L409.123 190.994C409.26 191.111 409.33 191.291 409.31 191.475C409.289 191.658 409.182 191.817 409.024 191.899L289.743 253.422C289.67 253.459 289.591 253.478 289.512 253.478L289.512 253.477ZM171.182 191.299L289.512 252.33L407.841 191.299L289.474 90.0193L171.182 191.299Z" fill="#292A2E"/>
<path d="M418.049 0.541992L394.308 33.7452V316.279C394.308 321.84 389.988 326.348 384.659 326.348H194.293C188.965 326.348 184.645 321.84 184.645 316.279V27.7455C184.645 12.7213 196.316 0.541992 210.714 0.541992H418.049Z" fill="white"/>
<path d="M384.658 326.89H194.294C188.686 326.89 184.125 322.13 184.125 316.279V27.7456C184.125 12.4468 196.053 0 210.714 0H418.049C418.246 0 418.425 0.115643 418.513 0.299226C418.602 0.482809 418.583 0.70253 418.466 0.866598L394.827 33.9253V316.279C394.827 322.13 390.266 326.89 384.658 326.89ZM210.714 1.08415C196.626 1.08415 185.164 13.0438 185.164 27.7449V316.279C185.164 321.533 189.26 325.806 194.294 325.806H384.658C389.692 325.806 393.788 321.533 393.788 316.279V33.7453C393.788 33.6282 393.824 33.5147 393.891 33.4208L417.013 1.08415H210.713H210.714Z" fill="#292A2E"/>
<path opacity="0.3" d="M355.507 36.5867H223.513C223.076 36.5867 222.723 36.9404 222.723 37.3767V38.7311C222.723 39.1674 223.076 39.5211 223.513 39.5211H355.507C355.944 39.5211 356.297 39.1674 356.297 38.7311V37.3767C356.297 36.9404 355.944 36.5867 355.507 36.5867Z" fill="#262626"/>
<path d="M394.305 25.3163C394.305 11.6336 404.935 0.541992 418.047 0.541992C431.159 0.541992 441.788 11.6336 441.788 25.3163V46.2325H394.305L394.305 25.3163Z" fill="white"/>
<path d="M441.788 46.7746H394.305C394.018 46.7746 393.785 46.5318 393.785 46.2325V25.3164C393.785 11.3568 404.669 0 418.046 0C431.424 0 442.307 11.3568 442.307 25.3164V46.2325C442.307 46.5318 442.075 46.7746 441.788 46.7746ZM394.825 45.6905H441.269V25.3164C441.269 11.9546 430.852 1.08415 418.046 1.08415C405.241 1.08415 394.824 11.9553 394.824 25.3164V45.6905H394.825Z" fill="#292A2E"/>
<path opacity="0.3" d="M376.019 98.2964H204.363C203.664 98.2964 203.098 98.6132 203.098 99.004V99.0343C203.098 99.4251 203.664 99.7419 204.363 99.7419H376.019C376.718 99.7419 377.285 99.4251 377.285 99.0343V99.004C377.285 98.6132 376.718 98.2964 376.019 98.2964Z" fill="#262626"/>
<path opacity="0.3" d="M376.019 88.9004H204.363C203.664 88.9004 203.098 89.0588 203.098 89.2542V89.2693C203.098 89.4647 203.664 89.6232 204.363 89.6232H376.019C376.718 89.6232 377.285 89.4647 377.285 89.2693V89.2542C377.285 89.0588 376.718 88.9004 376.019 88.9004Z" fill="#262626"/>
<path opacity="0.3" d="M376.019 78.7817H204.363C203.664 78.7817 203.098 79.0986 203.098 79.4894V79.5196C203.098 79.9104 203.664 80.2273 204.363 80.2273H376.019C376.718 80.2273 377.285 79.9104 377.285 79.5196V79.4894C377.285 79.0986 376.718 78.7817 376.019 78.7817Z" fill="#262626"/>
<path opacity="0.3" d="M376.019 69.3857H204.363C203.664 69.3857 203.098 69.7026 203.098 70.0934V70.1236C203.098 70.5145 203.664 70.8313 204.363 70.8313H376.019C376.718 70.8313 377.285 70.5145 377.285 70.1236V70.0934C377.285 69.7026 376.718 69.3857 376.019 69.3857Z" fill="#262626"/>
<path opacity="0.3" d="M376.019 59.9897H204.363C203.664 59.9897 203.098 60.3066 203.098 60.6974V60.7276C203.098 61.1185 203.664 61.4353 204.363 61.4353H376.019C376.718 61.4353 377.285 61.1185 377.285 60.7276V60.6974C377.285 60.3066 376.718 59.9897 376.019 59.9897Z" fill="#262626"/>
<path opacity="0.3" d="M305.186 107.692H204.365C203.665 107.692 203.098 108.009 203.098 108.4V108.43C203.098 108.821 203.665 109.138 204.365 109.138H305.186C305.886 109.138 306.453 108.821 306.453 108.43V108.4C306.453 108.009 305.886 107.692 305.186 107.692Z" fill="#262626"/>
<path opacity="0.3" d="M376.579 161.428H202.445C202.081 161.428 201.785 161.723 201.785 162.088V162.116C201.785 162.48 202.081 162.776 202.445 162.776H376.579C376.944 162.776 377.239 162.48 377.239 162.116V162.088C377.239 161.723 376.944 161.428 376.579 161.428Z" fill="#262626"/>
<path opacity="0.3" d="M376.579 151.857H202.445C202.081 151.857 201.785 152.153 201.785 152.517V152.545C201.785 152.91 202.081 153.205 202.445 153.205H376.579C376.944 153.205 377.239 152.91 377.239 152.545V152.517C377.239 152.153 376.944 151.857 376.579 151.857Z" fill="#262626"/>
<path opacity="0.3" d="M376.579 142.286H202.445C202.081 142.286 201.785 142.581 201.785 142.946V142.974C201.785 143.338 202.081 143.634 202.445 143.634H376.579C376.944 143.634 377.239 143.338 377.239 142.974V142.946C377.239 142.581 376.944 142.286 376.579 142.286Z" fill="#262626"/>
<path opacity="0.3" d="M376.579 132.715H202.445C202.081 132.715 201.785 133.01 201.785 133.374V133.403C201.785 133.767 202.081 134.063 202.445 134.063H376.579C376.944 134.063 377.239 133.767 377.239 133.403V133.374C377.239 133.01 376.944 132.715 376.579 132.715Z" fill="#262626"/>
<path opacity="0.3" d="M254.935 171H202.445C202.081 171 201.785 171.295 201.785 171.66V171.688C201.785 172.052 202.081 172.348 202.445 172.348H254.935C255.3 172.348 255.595 172.052 255.595 171.688V171.66C255.595 171.295 255.3 171 254.935 171Z" fill="#262626"/>
<path opacity="0.3" d="M376.579 216.622H202.445C202.081 216.622 201.785 216.918 201.785 217.282V217.31C201.785 217.675 202.081 217.97 202.445 217.97H376.579C376.944 217.97 377.239 217.675 377.239 217.31V217.282C377.239 216.918 376.944 216.622 376.579 216.622Z" fill="#262626"/>
<path opacity="0.3" d="M376.579 207.051H202.445C202.081 207.051 201.785 207.347 201.785 207.711V207.739C201.785 208.104 202.081 208.399 202.445 208.399H376.579C376.944 208.399 377.239 208.104 377.239 207.739V207.711C377.239 207.347 376.944 207.051 376.579 207.051Z" fill="#262626"/>
<path opacity="0.3" d="M376.579 197.48H202.445C202.081 197.48 201.785 197.775 201.785 198.14V198.168C201.785 198.532 202.081 198.828 202.445 198.828H376.579C376.944 198.828 377.239 198.532 377.239 198.168V198.14C377.239 197.775 376.944 197.48 376.579 197.48Z" fill="#262626"/>
<path opacity="0.3" d="M376.579 187.909H202.445C202.081 187.909 201.785 188.204 201.785 188.569V188.597C201.785 188.961 202.081 189.257 202.445 189.257H376.579C376.944 189.257 377.239 188.961 377.239 188.597V188.569C377.239 188.204 376.944 187.909 376.579 187.909Z" fill="#262626"/>
<path opacity="0.3" d="M254.935 226.193H202.445C202.081 226.193 201.785 226.489 201.785 226.853V226.881C201.785 227.246 202.081 227.541 202.445 227.541H254.935C255.3 227.541 255.595 227.246 255.595 226.881V226.853C255.595 226.489 255.3 226.193 254.935 226.193Z" fill="#262626"/>
<path d="M397.146 335.341H181.877C175.445 335.341 170.23 329.9 170.23 323.188V191.413L289.512 252.935L408.793 191.413V323.188C408.793 329.9 403.578 335.341 397.146 335.341Z" fill="#005116"/>
<path opacity="0.78" d="M397.146 335.341H181.877C175.445 335.341 170.23 329.9 170.23 323.188V191.413L289.512 252.935L408.793 191.413V323.188C408.793 329.9 403.578 335.341 397.146 335.341Z" fill="white"/>
<path d="M397.146 335.883H181.877C175.169 335.883 169.711 330.188 169.711 323.188V191.413C169.711 191.226 169.803 191.051 169.956 190.952C170.108 190.854 170.299 190.844 170.46 190.927L289.512 252.331L408.563 190.927C408.724 190.844 408.915 190.854 409.068 190.952C409.22 191.051 409.313 191.226 409.313 191.413V323.188C409.313 330.189 403.855 335.883 397.146 335.883ZM170.75 192.285V323.187C170.75 329.589 175.742 334.798 181.877 334.798H397.146C403.282 334.798 408.273 329.589 408.273 323.187V192.285L289.742 253.42C289.596 253.496 289.427 253.496 289.281 253.42L170.75 192.285H170.75Z" fill="#292A2E"/>
<path d="M463.222 365.34C463.389 365.34 463.549 365.243 463.626 365.077L475.474 339.721C475.583 339.488 475.49 339.208 475.267 339.094C475.044 338.981 474.775 339.078 474.667 339.31L462.819 364.667C462.71 364.899 462.803 365.18 463.026 365.293C463.089 365.326 463.157 365.341 463.222 365.341V365.34Z" fill="#292A2E"/>
<path d="M443.192 363.869C443.392 363.869 443.574 363.729 443.626 363.519L457.335 308.903C457.398 308.653 457.254 308.396 457.014 308.33C456.773 308.265 456.529 308.415 456.466 308.665L442.757 363.281C442.694 363.531 442.838 363.788 443.078 363.853C443.116 363.864 443.154 363.869 443.192 363.869Z" fill="#292A2E"/>
<path d="M417.043 366.286C417.102 366.286 417.161 366.274 417.218 366.249C417.446 366.148 417.553 365.872 417.456 365.635L403.285 330.807C403.188 330.569 402.924 330.457 402.695 330.559C402.467 330.66 402.361 330.935 402.458 331.173L416.629 366C416.701 366.179 416.868 366.286 417.042 366.286L417.043 366.286Z" fill="#292A2E"/>
<path d="M442.686 374.355C442.723 374.355 442.759 374.351 442.796 374.342C443.036 374.279 443.182 374.024 443.122 373.773L426.655 305.03C426.594 304.78 426.35 304.627 426.11 304.689C425.869 304.752 425.723 305.006 425.783 305.258L442.251 374C442.302 374.213 442.485 374.355 442.686 374.355Z" fill="#292A2E"/>
<path d="M437.518 317.48C441.238 307.357 437.415 296.637 428.98 293.538C420.544 290.438 410.69 296.131 406.97 306.254C403.25 316.377 407.073 327.096 415.508 330.196C423.943 333.296 433.797 327.603 437.518 317.48Z" fill="#FA7F03"/>
<path opacity="0.4" d="M437.518 317.48C441.238 307.357 437.415 296.637 428.98 293.538C420.544 290.438 410.69 296.131 406.97 306.254C403.25 316.377 407.073 327.096 415.508 330.196C423.943 333.296 433.797 327.603 437.518 317.48Z" fill="white"/>
<path d="M409.405 340.966C411.39 334.8 408.945 328.497 403.945 326.887C398.944 325.277 393.282 328.971 391.297 335.137C389.312 341.303 391.757 347.606 396.757 349.215C401.758 350.825 407.42 347.132 409.405 340.966Z" fill="#FA7F03"/>
<path d="M465.627 334.179C472.952 332.35 477.002 323.309 474.674 313.985C472.346 304.661 464.521 298.584 457.196 300.413C449.871 302.242 445.821 311.283 448.149 320.608C450.477 329.932 458.302 336.008 465.627 334.179Z" fill="#FA7F03"/>
<path d="M478.527 353.646C482.564 353.048 485.126 347.767 484.25 341.85C483.373 335.934 479.39 331.622 475.353 332.22C471.316 332.818 468.753 338.099 469.63 344.016C470.506 349.932 474.49 354.244 478.527 353.646Z" fill="#FA7F03"/>
<path d="M403.826 375H473.777V356.81H403.826V375Z" fill="#292A2E"/>
<path opacity="0.3" d="M403.826 375H473.777V356.81H403.826V375Z" fill="white"/>
<path d="M437.32 351.268C439.73 343.742 436.713 336.05 430.582 334.087C424.451 332.123 417.527 336.633 415.117 344.159C412.707 351.685 415.724 359.378 421.856 361.341C427.987 363.304 434.911 358.794 437.32 351.268Z" fill="#FA7F03"/>
<path d="M452.506 359.229C458.424 359.229 463.222 354.222 463.222 348.046C463.222 341.87 458.424 336.863 452.506 336.863C446.587 336.863 441.789 341.87 441.789 348.046C441.789 354.222 446.587 359.229 452.506 359.229Z" fill="#FA7F03"/>
<path opacity="0.68" d="M409.405 340.966C411.39 334.8 408.945 328.497 403.945 326.887C398.944 325.277 393.282 328.971 391.297 335.137C389.312 341.303 391.757 347.606 396.757 349.215C401.758 350.825 407.42 347.132 409.405 340.966Z" fill="white"/>
<path opacity="0.68" d="M465.627 334.179C472.952 332.35 477.002 323.309 474.674 313.985C472.346 304.661 464.521 298.584 457.196 300.413C449.871 302.242 445.821 311.283 448.149 320.608C450.477 329.932 458.302 336.008 465.627 334.179Z" fill="white"/>
<path opacity="0.68" d="M478.527 353.646C482.564 353.048 485.126 347.767 484.25 341.85C483.373 335.934 479.39 331.622 475.353 332.22C471.316 332.818 468.753 338.099 469.63 344.016C470.506 349.932 474.49 354.244 478.527 353.646Z" fill="white"/>
<path opacity="0.68" d="M437.32 351.268C439.73 343.742 436.713 336.05 430.582 334.087C424.451 332.123 417.527 336.633 415.117 344.159C412.707 351.685 415.724 359.378 421.856 361.341C427.987 363.304 434.911 358.794 437.32 351.268Z" fill="white"/>
<path opacity="0.4" d="M452.506 359.229C458.424 359.229 463.222 354.222 463.222 348.046C463.222 341.87 458.424 336.863 452.506 336.863C446.587 336.863 441.789 341.87 441.789 348.046C441.789 354.222 446.587 359.229 452.506 359.229Z" fill="white"/>
<path d="M418.082 338.632C426.216 341.003 430.497 334.067 430.497 334.067L430.493 334.057C426.154 332.707 421.342 334.606 418.082 338.632Z" fill="#292A2E"/>
<path d="M469.461 341.472C473.472 339.935 476.67 336.856 478.808 332.876C477.672 332.271 476.445 332.028 475.224 332.244C471.837 332.835 469.538 336.73 469.461 341.472Z" fill="#292A2E"/>
<path d="M450.594 337.043C453.908 340.052 457.789 341.955 461.773 342.428C459.914 339.101 456.46 336.865 452.508 336.865C451.852 336.865 451.213 336.926 450.594 337.043Z" fill="#292A2E"/>
<path d="M499.54 374.832H18.8096C18.4273 374.832 18.1172 374.508 18.1172 374.109C18.1172 373.711 18.4273 373.387 18.8096 373.387H499.54C499.923 373.387 500.233 373.711 500.233 374.109C500.233 374.508 499.923 374.832 499.54 374.832Z" fill="#292A2E"/>
<path d="M275.39 145.226L266.587 163.781L266.732 160.973C266.756 159.105 265.437 157.412 263.65 157.289C261.744 157.159 260.147 158.719 260.121 160.686L259.566 195.445L270.238 195.911C277.018 196.208 283.293 192.182 286.098 185.734L292.288 171.446C292.949 169.926 292.57 168.067 291.265 167.103C290.004 166.172 288.44 166.29 287.345 167.146C287.317 167.1 287.283 167.055 287.233 167.027C287.139 166.975 287.032 166.985 286.944 167.034L288.09 164.4C288.831 162.699 288.273 160.595 286.684 159.735C285.219 158.942 283.481 159.404 282.532 160.699C282.52 160.664 282.501 160.637 282.477 160.607L282.949 159.524C283.61 158.005 283.231 156.145 281.926 155.182C280.399 154.054 278.426 154.461 277.382 155.86C277.36 155.851 277.339 155.844 277.316 155.84L280.982 148.113C281.746 146.502 281.114 144.55 279.57 143.752C278.027 142.955 276.155 143.614 275.391 145.225L275.39 145.226Z" fill="#FF9E85"/>
<path opacity="0.2" d="M277.579 156.198C277.575 156.234 277.565 156.271 277.548 156.306L273.903 163.768C273.825 163.928 273.639 163.992 273.486 163.91C273.333 163.829 273.273 163.633 273.35 163.474L276.994 156.012C277.072 155.852 277.258 155.788 277.412 155.87C277.532 155.934 277.594 156.067 277.579 156.198H277.579Z" fill="#0A0A0A"/>
<path opacity="0.2" d="M282.557 160.846C282.553 160.882 282.543 160.918 282.527 160.952L279.706 166.84C279.63 167 279.443 167.066 279.289 166.985C279.136 166.905 279.073 166.711 279.15 166.55L281.97 160.662C282.047 160.501 282.233 160.436 282.387 160.517C282.508 160.579 282.572 160.714 282.557 160.846Z" fill="#0A0A0A"/>
<path opacity="0.2" d="M287.396 167.354C287.392 167.392 287.381 167.43 287.363 167.466L285.968 170.215C285.889 170.373 285.7 170.433 285.549 170.35C285.397 170.266 285.338 170.071 285.42 169.912L286.814 167.163C286.893 167.005 287.082 166.945 287.233 167.028C287.351 167.093 287.412 167.225 287.396 167.354Z" fill="#0A0A0A"/>
<path d="M254.255 172.347L228.15 250.475L185.725 192.579L146.027 227.195L219.367 308.92C221.937 311.991 225.309 314.4 229.293 315.756C241.063 319.76 253.717 313.05 257.555 300.768L293.301 185.718L254.255 172.347Z" fill="#005116"/>
<path d="M22.5802 340.077C15.6735 340.077 9.08906 336.769 4.78353 331.015C-0.0279309 324.585 -1.31012 316.014 1.39448 308.36C2.67233 304.743 32.7539 219.614 38.4573 204.276L80.565 221.322C77.3581 229.947 65.7396 262.637 56.405 288.971L71.912 287.213L76.7936 334.067L25.0232 339.94C24.2065 340.033 23.3905 340.078 22.5795 340.078L22.5802 340.077Z" fill="#005116"/>
<path d="M49.6443 337.671L42.7578 373.438H176.509L168.806 336.99L49.6443 337.671Z" fill="#262626"/>
<path d="M78.5615 177.828C67.3867 178.694 55.9923 182.483 47.6017 190.233C34.946 201.923 36.0721 209.23 42.3898 241.601C47.8258 269.455 45.669 281.627 49.3053 333.025C49.4122 334.54 49.6421 337.671 49.6421 337.671L169.183 337.465C169.183 337.465 180.383 269.272 186.568 237.82C191.271 213.908 203.623 184.881 151.541 179.03C151.402 179.015 109.632 175.423 78.5615 177.828Z" fill="#005116"/>
<path d="M151.542 179.032C151.403 179.013 147.609 193.912 117.999 191.594C97.4997 189.991 92.501 175.431 92.0312 175.431C94.2415 174.941 97.8307 174.432 98.8123 173.885C102.04 172.075 104.391 169.872 105.575 165.144C106.501 161.446 106.972 147.212 106.972 140.07L138.516 147.466C138.077 155.522 134.999 174.199 145.785 177.504C147.58 178.05 149.513 178.553 151.542 179.031V179.032Z" fill="#FF9E85"/>
<path d="M137.425 163.306C124.99 164.329 109.015 158.851 105.981 141.538L103.243 125.917C100.209 108.605 106.463 92.9068 122.084 89.9261C137.705 86.9447 151.841 98.7511 154.875 116.064L156.087 122.979C157.252 129.622 159.612 161.479 137.425 163.306Z" fill="#FF9E85"/>
<path d="M148.957 147.411C146.725 135.708 145.701 127.9 145.821 119.662C148.965 113.907 148.138 107.302 147.423 104.448C150.504 106.202 151.793 106.394 154.693 106.394C154.693 106.394 149.494 84.6189 131.821 78.7594C128.572 77.4396 120.274 75.7729 109.257 77.3493C99.8865 78.69 76.7883 86.0015 73.4882 113.136H73.4867C73.4867 113.136 73.4867 113.144 73.486 113.152C73.3769 114.052 71.1594 139.053 66.7375 151.049C60.7935 167.175 52.4491 172.185 52.6602 190.791C52.9327 214.723 95.0953 217.908 120.527 216.118C145.959 214.327 160.155 205.601 160.339 188.355C160.545 169.031 153.423 170.826 148.957 147.411H148.957Z" fill="#0A0A0A"/>
<path d="M148.963 137.6C144.216 138.506 139.438 133.941 138.57 128.987C137.702 124.033 141.072 120.567 145.819 119.661L148.963 137.6Z" fill="#FF9E85"/>
<path d="M181.04 269.279C181.021 269.279 181.002 269.277 180.984 269.273C180.82 269.241 180.713 269.076 180.744 268.906L185.756 236.141C185.787 235.971 185.947 235.859 186.108 235.891C186.271 235.923 186.379 236.088 186.348 236.258L181.336 269.023C181.308 269.174 181.182 269.279 181.04 269.279Z" fill="#0C0C0C"/>
<path d="M49.6447 337.986C49.4835 337.986 49.3505 337.854 49.344 337.684L45.5979 236.212C45.5914 236.039 45.7208 235.893 45.887 235.885C46.0453 235.893 46.1935 236.013 46.1992 236.188L49.9453 337.659C49.9518 337.833 49.8225 337.979 49.6562 337.986H49.6447Z" fill="#0C0C0C"/>
</g>
<defs>
<clipPath id="clip0_1159_2522">
<rect width="500" height="375" fill="white"/>
</clipPath>
</defs>
</svg>
