<svg width="124" height="118" viewBox="0 0 124 118" fill="none" xmlns="http://www.w3.org/2000/svg">
<g clip-path="url(#clip0_1159_2524)">
<rect width="124" height="118" fill="white"/>
<path d="M43.1182 118L32.4091 99.7381L11.1318 95.3833L13.5273 74.7333L0 59L13.5273 43.4071L11.1318 22.7571L32.4091 18.4024L43.1182 0L62 8.70952L80.8818 0L91.7318 18.4024L112.868 22.7571L110.473 43.4071L124 59L110.473 74.7333L112.868 95.3833L91.7318 99.7381L80.8818 118L62 109.29L43.1182 118ZM46.9227 106.902L62 100.581L77.5 106.902L86.9409 92.8548L103.427 88.6405L101.736 71.9238L113.15 59L101.736 45.7952L103.427 29.0786L86.9409 25.1452L77.2182 11.0976L62 17.419L46.5 11.0976L37.0591 25.1452L20.5727 29.0786L22.2636 45.7952L10.85 59L22.2636 71.9238L20.5727 88.9214L37.0591 92.8548L46.9227 106.902ZM55.9409 77.6833L87.9273 46.0762L81.5864 40.3167L55.9409 65.6024L42.5545 51.6952L36.0727 58.0167L55.9409 77.6833Z" fill="#F0B03D"/>
</g>
<defs>
<clipPath id="clip0_1159_2524">
<rect width="124" height="118" fill="white"/>
</clipPath>
</defs>
</svg>
