<svg width="453" height="429" viewBox="0 0 453 429" fill="none" xmlns="http://www.w3.org/2000/svg">
<g clip-path="url(#clip0_1159_2274)">
<path d="M328.324 298.943L353.789 241.538L392.556 224.023L453 250.899L414.656 337.328L328.324 298.943Z" fill="#F4F4F4"/>
<path opacity="0.05" d="M421.943 289.148L360.141 261.495C359.539 261.225 358.833 261.496 358.564 262.099L358.563 262.099C358.294 262.702 358.564 263.409 359.166 263.678L420.968 291.331C421.57 291.6 422.276 291.33 422.546 290.727L422.546 290.727C422.815 290.124 422.545 289.417 421.943 289.148Z" fill="#292A2E"/>
<path opacity="0.05" d="M416.751 301.559L354.95 273.906C354.347 273.637 353.641 273.907 353.372 274.51L353.372 274.511C353.103 275.113 353.373 275.82 353.975 276.09L415.777 303.742C416.379 304.012 417.085 303.742 417.354 303.139L417.354 303.138C417.623 302.536 417.353 301.829 416.751 301.559Z" fill="#292A2E"/>
<path opacity="0.05" d="M385.668 302.605L349.647 286.601C349.044 286.332 348.338 286.602 348.069 287.205C347.8 287.808 348.07 288.515 348.672 288.785L384.694 304.789C385.296 305.058 386.002 304.788 386.271 304.185C386.54 303.582 386.27 302.875 385.668 302.605Z" fill="#292A2E"/>
<path opacity="0.4" d="M392.557 224.023L380.032 253.175L353.789 241.538L392.557 224.023Z" fill="white"/>
<path d="M20.2971 158.11L6.16406 96.913L26.6195 59.5795L91.0572 44.6652L112.332 136.806L20.2971 158.11Z" fill="#F4F4F4"/>
<path opacity="0.05" d="M89.2155 93.9212L23.2265 109.033C22.5836 109.18 22.1817 109.821 22.3288 110.465L22.3289 110.465C22.4759 111.109 23.1163 111.511 23.7591 111.364L89.7481 96.2524C90.391 96.1052 90.7929 95.4641 90.6459 94.8205L90.6458 94.82C90.4987 94.1764 89.8584 93.774 89.2155 93.9212Z" fill="#292A2E"/>
<path opacity="0.05" d="M92.5241 106.964L26.5351 122.076C25.8922 122.223 25.4903 122.864 25.6373 123.508L25.6375 123.508C25.7845 124.152 26.4248 124.554 27.0677 124.407L93.0567 109.295C93.6996 109.148 94.1015 108.507 93.9545 107.864L93.9543 107.863C93.8073 107.219 93.167 106.817 92.5241 106.964Z" fill="#292A2E"/>
<path opacity="0.05" d="M68.314 126.514L29.9205 135.412C29.2773 135.56 28.8753 136.201 29.0226 136.845C29.1699 137.489 29.8102 137.891 30.4534 137.744L68.8468 128.846C69.4901 128.698 69.8921 128.057 69.7448 127.413C69.5974 126.769 68.9572 126.367 68.314 126.514Z" fill="#292A2E"/>
<path opacity="0.4" d="M26.6195 59.5796L34.122 90.4128L6.16406 96.913L26.6195 59.5796Z" fill="white"/>
<path d="M327.116 345.711H68.9176C61.6603 345.711 55.7773 339.821 55.7773 332.556L64.7666 40.7509H348.746L340.256 332.556C340.256 339.821 334.373 345.711 327.116 345.711Z" fill="#292A2E"/>
<path opacity="0.9" d="M327.116 345.711H68.9176C61.6603 345.711 55.7773 339.821 55.7773 332.556L64.7666 40.7509H348.746L340.256 332.556C340.256 339.821 334.373 345.711 327.116 345.711Z" fill="white"/>
<path d="M327.115 346.211H68.917C61.396 346.211 55.2773 340.085 55.2773 332.555L64.2666 40.2504H349.245L340.755 332.555C340.755 340.085 334.636 346.211 327.115 346.211H327.115ZM65.2649 41.2508L56.2756 332.556C56.2756 339.534 61.9463 345.211 68.9165 345.211H327.115C334.085 345.211 339.756 339.534 339.756 332.556L348.245 41.2508H65.2649Z" fill="#292A2E"/>
<path d="M336.602 11.817H78.4047C70.8837 11.817 64.765 17.9428 64.765 25.4724L64.2656 41.2503H349.244L350.243 25.4724C350.243 17.9428 344.124 11.817 336.603 11.817H336.602Z" fill="#0C0C0C"/>
<path d="M341.595 11.817H80.4014C72.8804 11.817 66.7617 17.9428 66.7617 25.4724V41.2503H355.236V25.4724C355.236 17.9428 349.117 11.817 341.596 11.817H341.595Z" fill="#292A2E"/>
<path d="M67.2617 40.7509H354.737V337.555C354.737 344.816 348.849 350.711 341.597 350.711H80.402C73.1497 350.711 67.2617 344.816 67.2617 337.555V40.7509Z" fill="white"/>
<path d="M341.595 351.21H80.4014C72.8804 351.21 66.7617 345.085 66.7617 337.555V40.2509H355.236V337.555C355.236 345.085 349.117 351.211 341.596 351.211L341.595 351.21ZM67.76 41.2508V337.555C67.76 344.534 73.4307 350.211 80.4009 350.211H341.595C348.566 350.211 354.236 344.534 354.236 337.555V41.2508H67.76Z" fill="#292A2E"/>
<path d="M118.185 102.388H89.4898C86.1633 102.388 83.457 99.6788 83.457 96.3485V67.6202C83.457 64.2898 86.1633 61.5809 89.4898 61.5809H118.185C121.511 61.5809 124.218 64.2898 124.218 67.6202V96.3485C124.218 99.6788 121.511 102.388 118.185 102.388ZM89.4898 62.5804C86.7141 62.5804 84.4558 64.8408 84.4558 67.6197V96.348C84.4558 99.1269 86.7136 101.387 89.4898 101.387H118.185C120.961 101.387 123.219 99.1269 123.219 96.348V67.6197C123.219 64.8408 120.961 62.5804 118.185 62.5804H89.4898Z" fill="#292A2E"/>
<path d="M118.185 159.304H89.4898C86.1633 159.304 83.457 156.595 83.457 153.265V124.536C83.457 121.206 86.1633 118.497 89.4898 118.497H118.185C121.511 118.497 124.218 121.206 124.218 124.536V153.265C124.218 156.595 121.511 159.304 118.185 159.304ZM89.4898 119.497C86.7141 119.497 84.4558 121.757 84.4558 124.537V153.265C84.4558 156.044 86.7136 158.305 89.4898 158.305H118.185C120.961 158.305 123.219 156.045 123.219 153.265V124.537C123.219 121.758 120.961 119.497 118.185 119.497H89.4898Z" fill="#292A2E"/>
<path d="M118.185 216.221H89.4898C86.1633 216.221 83.457 213.512 83.457 210.181V181.453C83.457 178.123 86.1633 175.414 89.4898 175.414H118.185C121.511 175.414 124.218 178.123 124.218 181.453V210.181C124.218 213.512 121.511 216.221 118.185 216.221ZM89.4898 176.414C86.7141 176.414 84.4558 178.674 84.4558 181.453V210.181C84.4558 212.96 86.7136 215.221 89.4898 215.221H118.185C120.961 215.221 123.219 212.961 123.219 210.181V181.453C123.219 178.674 120.961 176.414 118.185 176.414H89.4898Z" fill="#292A2E"/>
<path d="M118.185 272.356H89.4898C86.1633 272.356 83.457 269.647 83.457 266.316V237.588C83.457 234.258 86.1633 231.548 89.4898 231.548H118.185C121.511 231.548 124.218 234.258 124.218 237.588V266.316C124.218 269.647 121.511 272.356 118.185 272.356ZM89.4898 232.548C86.7141 232.548 84.4558 234.809 84.4558 237.588V266.316C84.4558 269.095 86.7136 271.356 89.4898 271.356H118.185C120.961 271.356 123.219 269.095 123.219 266.316V237.588C123.219 234.809 120.961 232.548 118.185 232.548H89.4898Z" fill="#292A2E"/>
<path d="M118.185 328.49H89.4898C86.1633 328.49 83.457 325.781 83.457 322.45V293.722C83.457 290.392 86.1633 287.682 89.4898 287.682H118.185C121.511 287.682 124.218 290.392 124.218 293.722V322.45C124.218 325.781 121.511 328.49 118.185 328.49ZM89.4898 288.683C86.7141 288.683 84.4558 290.943 84.4558 293.723V322.451C84.4558 325.23 86.7136 327.491 89.4898 327.491H118.185C120.961 327.491 123.219 325.23 123.219 322.451V293.723C123.219 290.944 120.961 288.683 118.185 288.683H89.4898Z" fill="#292A2E"/>
<path d="M98.7323 93.4776C98.2339 93.4776 97.7355 93.2921 97.3485 92.9196L88.9845 84.8715C88.189 84.106 88.164 82.84 88.9286 82.0436C89.6932 81.2476 90.9571 81.2221 91.7532 81.9876L98.6988 88.6708L116.108 71.083C116.885 70.2981 118.15 70.2926 118.934 71.07C119.717 71.8475 119.723 73.1139 118.947 73.8984L100.152 92.8851C99.7616 93.2796 99.2472 93.4776 98.7328 93.4776H98.7323Z" fill="#004E02"/>
<path d="M98.7323 150.394C98.2339 150.394 97.7355 150.209 97.3485 149.836L88.9845 141.788C88.189 141.023 88.164 139.757 88.9286 138.96C89.6932 138.164 90.9571 138.139 91.7532 138.904L98.6988 145.587L116.108 128C116.885 127.216 118.15 127.21 118.934 127.987C119.717 128.765 119.723 130.031 118.947 130.815L100.152 149.802C99.7616 150.197 99.2472 150.395 98.7328 150.395L98.7323 150.394Z" fill="#004E02"/>
<path d="M98.7323 207.311C98.2339 207.311 97.7355 207.125 97.3485 206.753L88.9845 198.705C88.189 197.939 88.164 196.673 88.9286 195.877C89.6932 195.081 90.9571 195.055 91.7532 195.821L98.6988 202.504L116.108 184.916C116.885 184.132 118.15 184.126 118.934 184.903C119.717 185.681 119.723 186.947 118.947 187.732L100.152 206.718C99.7616 207.113 99.2477 207.311 98.7328 207.311H98.7323Z" fill="#004E02"/>
<path opacity="0.5" d="M333.16 73.089H139.898C139.128 73.089 138.504 73.7137 138.504 74.4844C138.504 75.2551 139.128 75.8799 139.898 75.8799H333.16C333.93 75.8799 334.554 75.2551 334.554 74.4844C334.554 73.7137 333.93 73.089 333.16 73.089Z" fill="#262626"/>
<path opacity="0.5" d="M253.256 88.0884H139.898C139.128 88.0884 138.504 88.7131 138.504 89.4838C138.504 90.2545 139.128 90.8793 139.898 90.8793H253.256C254.026 90.8793 254.65 90.2545 254.65 89.4838C254.65 88.7131 254.026 88.0884 253.256 88.0884Z" fill="#262626"/>
<path opacity="0.5" d="M333.16 130.006H139.898C139.128 130.006 138.504 130.63 138.504 131.401C138.504 132.172 139.128 132.796 139.898 132.796H333.16C333.93 132.796 334.554 132.172 334.554 131.401C334.554 130.63 333.93 130.006 333.16 130.006Z" fill="#262626"/>
<path opacity="0.5" d="M253.256 145.005H139.898C139.128 145.005 138.504 145.63 138.504 146.4C138.504 147.171 139.128 147.796 139.898 147.796H253.256C254.026 147.796 254.65 147.171 254.65 146.4C254.65 145.63 254.026 145.005 253.256 145.005Z" fill="#262626"/>
<path opacity="0.5" d="M333.16 186.922H139.898C139.128 186.922 138.504 187.547 138.504 188.318C138.504 189.088 139.128 189.713 139.898 189.713H333.16C333.93 189.713 334.554 189.088 334.554 188.318C334.554 187.547 333.93 186.922 333.16 186.922Z" fill="#262626"/>
<path opacity="0.5" d="M253.256 201.922H139.898C139.128 201.922 138.504 202.546 138.504 203.317C138.504 204.088 139.128 204.712 139.898 204.712H253.256C254.026 204.712 254.65 204.088 254.65 203.317C254.65 202.546 254.026 201.922 253.256 201.922Z" fill="#262626"/>
<path opacity="0.5" d="M333.16 243.057H139.898C139.128 243.057 138.504 243.682 138.504 244.452C138.504 245.223 139.128 245.848 139.898 245.848H333.16C333.93 245.848 334.554 245.223 334.554 244.452C334.554 243.682 333.93 243.057 333.16 243.057Z" fill="#262626"/>
<path opacity="0.5" d="M253.256 258.056H139.898C139.128 258.056 138.504 258.681 138.504 259.452C138.504 260.222 139.128 260.847 139.898 260.847H253.256C254.026 260.847 254.65 260.222 254.65 259.452C254.65 258.681 254.026 258.056 253.256 258.056Z" fill="#262626"/>
<path opacity="0.5" d="M333.16 299.191H139.898C139.128 299.191 138.504 299.816 138.504 300.586C138.504 301.357 139.128 301.982 139.898 301.982H333.16C333.93 301.982 334.554 301.357 334.554 300.586C334.554 299.816 333.93 299.191 333.16 299.191Z" fill="#262626"/>
<path opacity="0.5" d="M253.256 314.19H139.898C139.128 314.19 138.504 314.815 138.504 315.586C138.504 316.356 139.128 316.981 139.898 316.981H253.256C254.026 316.981 254.65 316.356 254.65 315.586C254.65 314.815 254.026 314.19 253.256 314.19Z" fill="#262626"/>
<path d="M101.807 1.16978e-05C95.2986 1.16978e-05 90.0039 5.30129 90.0039 11.817H91.0027C91.0027 5.85227 95.8499 0.99997 101.807 0.99997C107.765 0.99997 112.612 5.85277 112.612 11.817C112.612 17.2758 108.552 21.8006 103.296 22.5291C103.027 21.9751 102.464 21.5896 101.807 21.5896C100.889 21.5896 100.146 22.3341 100.146 23.2525C100.146 24.171 100.889 24.9155 101.807 24.9155C102.633 24.9155 103.313 24.3095 103.441 23.518C109.179 22.7186 113.611 17.7773 113.611 11.8165C113.611 5.30029 108.315 -0.000488281 101.807 -0.000488281V1.16978e-05Z" fill="#F4F4F4"/>
<path d="M331.997 11.817C331.997 5.30078 326.702 0 320.194 0C313.686 0 308.391 5.30128 308.391 11.817H309.389C309.389 5.85225 314.237 0.999958 320.194 0.999958C326.151 0.999958 330.999 5.85275 330.999 11.817C330.999 17.2758 326.938 21.8006 321.683 22.5291C321.414 21.9751 320.851 21.5896 320.193 21.5896C319.276 21.5896 318.532 22.3341 318.532 23.2525C318.532 24.171 319.276 24.9155 320.193 24.9155C321.02 24.9155 321.7 24.3095 321.828 23.518C327.566 22.7185 331.997 17.7778 331.997 11.817Z" fill="#F4F4F4"/>
<path d="M300.802 11.817C300.802 5.30078 295.507 0 288.999 0C282.49 0 277.195 5.30128 277.195 11.817H278.194C278.194 5.85225 283.041 0.999958 288.999 0.999958C294.956 0.999958 299.803 5.85275 299.803 11.817C299.803 17.2758 295.743 21.8006 290.487 22.5291C290.218 21.9751 289.655 21.5896 288.998 21.5896C288.081 21.5896 287.337 22.3341 287.337 23.2525C287.337 24.171 288.081 24.9155 288.998 24.9155C289.825 24.9155 290.505 24.3095 290.633 23.518C296.37 22.7185 300.802 17.7778 300.802 11.817Z" fill="#F4F4F4"/>
<path d="M269.603 11.817C269.603 5.30078 264.308 0 257.799 0C251.291 0 245.996 5.30128 245.996 11.817H246.995C246.995 5.85225 251.842 0.999958 257.799 0.999958C263.757 0.999958 268.604 5.85275 268.604 11.817C268.604 17.2758 264.544 21.8006 259.288 22.5291C259.019 21.9751 258.456 21.5896 257.799 21.5896C256.882 21.5896 256.138 22.3341 256.138 23.2525C256.138 24.171 256.882 24.9155 257.799 24.9155C258.625 24.9155 259.306 24.3095 259.433 23.518C265.171 22.7185 269.603 17.7778 269.603 11.817Z" fill="#F4F4F4"/>
<path d="M238.404 11.817C238.404 5.30078 233.108 0 226.6 0C220.092 0 214.797 5.30128 214.797 11.817H215.796C215.796 5.85225 220.643 0.999958 226.6 0.999958C232.558 0.999958 237.405 5.85275 237.405 11.817C237.405 17.2758 233.345 21.8006 228.089 22.5291C227.82 21.9751 227.257 21.5896 226.6 21.5896C225.682 21.5896 224.939 22.3341 224.939 23.2525C224.939 24.171 225.682 24.9155 226.6 24.9155C227.426 24.9155 228.106 24.3095 228.234 23.518C233.972 22.7185 238.404 17.7778 238.404 11.817Z" fill="#F4F4F4"/>
<path d="M207.204 11.817C207.204 5.30078 201.909 0 195.401 0C188.893 0 183.598 5.30128 183.598 11.817H184.596C184.596 5.85225 189.444 0.999958 195.401 0.999958C201.358 0.999958 206.206 5.85275 206.206 11.817C206.206 17.2758 202.145 21.8006 196.89 22.5291C196.621 21.9751 196.058 21.5896 195.4 21.5896C194.483 21.5896 193.739 22.3341 193.739 23.2525C193.739 24.171 194.483 24.9155 195.4 24.9155C196.227 24.9155 196.907 24.3095 197.035 23.518C202.773 22.7185 207.204 17.7778 207.204 11.817Z" fill="#F4F4F4"/>
<path d="M176.009 11.817C176.009 5.30078 170.714 0 164.206 0C157.697 0 152.402 5.30128 152.402 11.817H153.401C153.401 5.85225 158.248 0.999958 164.206 0.999958C170.163 0.999958 175.01 5.85275 175.01 11.817C175.01 17.2758 170.95 21.8006 165.694 22.5291C165.425 21.9751 164.862 21.5896 164.205 21.5896C163.288 21.5896 162.544 22.3341 162.544 23.2525C162.544 24.171 163.288 24.9155 164.205 24.9155C165.032 24.9155 165.712 24.3095 165.84 23.518C171.577 22.7185 176.009 17.7778 176.009 11.817Z" fill="#F4F4F4"/>
<path d="M144.81 11.817C144.81 5.30078 139.515 0 133.006 0C126.498 0 121.203 5.30128 121.203 11.817H122.202C122.202 5.85225 127.049 0.999958 133.006 0.999958C138.964 0.999958 143.811 5.85275 143.811 11.817C143.811 17.2758 139.751 21.8006 134.495 22.5291C134.226 21.9751 133.663 21.5896 133.006 21.5896C132.089 21.5896 131.345 22.3341 131.345 23.2525C131.345 24.171 132.089 24.9155 133.006 24.9155C133.832 24.9155 134.513 24.3095 134.641 23.518C140.378 22.7185 144.81 17.7778 144.81 11.817Z" fill="#F4F4F4"/>
<g opacity="0.6">
<path d="M101.807 1.16978e-05C95.2986 1.16978e-05 90.0039 5.30129 90.0039 11.817H91.0027C91.0027 5.85227 95.8499 0.99997 101.807 0.99997C107.765 0.99997 112.612 5.85277 112.612 11.817C112.612 17.2758 108.552 21.8006 103.296 22.5291C103.027 21.9751 102.464 21.5896 101.807 21.5896C100.889 21.5896 100.146 22.3341 100.146 23.2525C100.146 24.171 100.889 24.9155 101.807 24.9155C102.633 24.9155 103.313 24.3095 103.441 23.518C109.179 22.7186 113.611 17.7773 113.611 11.8165C113.611 5.30029 108.315 -0.000488281 101.807 -0.000488281V1.16978e-05Z" fill="#292A2E"/>
<path d="M331.997 11.817C331.997 5.30078 326.702 0 320.194 0C313.686 0 308.391 5.30128 308.391 11.817H309.389C309.389 5.85225 314.237 0.999958 320.194 0.999958C326.151 0.999958 330.999 5.85275 330.999 11.817C330.999 17.2758 326.938 21.8006 321.683 22.5291C321.414 21.9751 320.851 21.5896 320.193 21.5896C319.276 21.5896 318.532 22.3341 318.532 23.2525C318.532 24.171 319.276 24.9155 320.193 24.9155C321.02 24.9155 321.7 24.3095 321.828 23.518C327.566 22.7185 331.997 17.7778 331.997 11.817Z" fill="#292A2E"/>
<path d="M300.802 11.817C300.802 5.30078 295.507 0 288.999 0C282.49 0 277.195 5.30128 277.195 11.817H278.194C278.194 5.85225 283.041 0.999958 288.999 0.999958C294.956 0.999958 299.803 5.85275 299.803 11.817C299.803 17.2758 295.743 21.8006 290.487 22.5291C290.218 21.9751 289.655 21.5896 288.998 21.5896C288.081 21.5896 287.337 22.3341 287.337 23.2525C287.337 24.171 288.081 24.9155 288.998 24.9155C289.825 24.9155 290.505 24.3095 290.633 23.518C296.37 22.7185 300.802 17.7778 300.802 11.817Z" fill="#292A2E"/>
<path d="M269.603 11.817C269.603 5.30078 264.308 0 257.799 0C251.291 0 245.996 5.30128 245.996 11.817H246.995C246.995 5.85225 251.842 0.999958 257.799 0.999958C263.757 0.999958 268.604 5.85275 268.604 11.817C268.604 17.2758 264.544 21.8006 259.288 22.5291C259.019 21.9751 258.456 21.5896 257.799 21.5896C256.882 21.5896 256.138 22.3341 256.138 23.2525C256.138 24.171 256.882 24.9155 257.799 24.9155C258.625 24.9155 259.306 24.3095 259.433 23.518C265.171 22.7185 269.603 17.7778 269.603 11.817Z" fill="#292A2E"/>
<path d="M238.404 11.817C238.404 5.30078 233.108 0 226.6 0C220.092 0 214.797 5.30128 214.797 11.817H215.796C215.796 5.85225 220.643 0.999958 226.6 0.999958C232.558 0.999958 237.405 5.85275 237.405 11.817C237.405 17.2758 233.345 21.8006 228.089 22.5291C227.82 21.9751 227.257 21.5896 226.6 21.5896C225.682 21.5896 224.939 22.3341 224.939 23.2525C224.939 24.171 225.682 24.9155 226.6 24.9155C227.426 24.9155 228.106 24.3095 228.234 23.518C233.972 22.7185 238.404 17.7778 238.404 11.817Z" fill="#292A2E"/>
<path d="M207.204 11.817C207.204 5.30078 201.909 0 195.401 0C188.893 0 183.598 5.30128 183.598 11.817H184.596C184.596 5.85225 189.444 0.999958 195.401 0.999958C201.358 0.999958 206.206 5.85275 206.206 11.817C206.206 17.2758 202.145 21.8006 196.89 22.5291C196.621 21.9751 196.058 21.5896 195.4 21.5896C194.483 21.5896 193.739 22.3341 193.739 23.2525C193.739 24.171 194.483 24.9155 195.4 24.9155C196.227 24.9155 196.907 24.3095 197.035 23.518C202.773 22.7185 207.204 17.7778 207.204 11.817Z" fill="#292A2E"/>
<path d="M176.009 11.817C176.009 5.30078 170.714 0 164.206 0C157.697 0 152.402 5.30128 152.402 11.817H153.401C153.401 5.85225 158.248 0.999958 164.206 0.999958C170.163 0.999958 175.01 5.85275 175.01 11.817C175.01 17.2758 170.95 21.8006 165.694 22.5291C165.425 21.9751 164.862 21.5896 164.205 21.5896C163.288 21.5896 162.544 22.3341 162.544 23.2525C162.544 24.171 163.288 24.9155 164.205 24.9155C165.032 24.9155 165.712 24.3095 165.84 23.518C171.577 22.7185 176.009 17.7778 176.009 11.817Z" fill="#292A2E"/>
<path d="M144.81 11.817C144.81 5.30078 139.515 0 133.006 0C126.498 0 121.203 5.30128 121.203 11.817H122.202C122.202 5.85225 127.049 0.999958 133.006 0.999958C138.964 0.999958 143.811 5.85275 143.811 11.817C143.811 17.2758 139.751 21.8006 134.495 22.5291C134.226 21.9751 133.663 21.5896 133.006 21.5896C132.089 21.5896 131.345 22.3341 131.345 23.2525C131.345 24.171 132.089 24.9155 133.006 24.9155C133.832 24.9155 134.513 24.3095 134.641 23.518C140.378 22.7185 144.81 17.7778 144.81 11.817Z" fill="#292A2E"/>
</g>
<path d="M37.852 362.382C37.7242 362.382 37.5963 362.333 37.499 362.236C36.7953 361.531 35.6482 348.607 32.5589 310.127C31.2949 294.381 30.1008 279.509 29.2294 270.471C29.1669 269.825 28.9172 269.75 28.8348 269.725C27.6423 269.365 24.0146 272.229 21.9896 274.736C21.8163 274.95 21.5016 274.984 21.2869 274.81C21.0727 274.636 21.0392 274.322 21.2125 274.107C22.5519 272.449 26.9166 268.103 29.122 268.767C29.567 268.901 30.1188 269.288 30.2237 270.374C31.0956 279.42 32.2897 294.297 33.5542 310.046C35.4314 333.43 37.5584 359.922 38.257 361.59C38.3979 361.786 38.3804 362.06 38.2046 362.236C38.1072 362.333 37.9799 362.382 37.852 362.382Z" fill="#494949"/>
<path d="M27.9482 287.057C36.2351 280.406 38.9817 270.055 34.0829 263.937C29.1841 257.818 18.4949 258.249 10.208 264.9C1.92103 271.55 -0.825602 281.901 4.07321 288.02C8.97202 294.138 19.6612 293.707 27.9482 287.057Z" fill="#E0AB3F"/>
<path opacity="0.2" d="M27.9482 287.057C36.2351 280.406 38.9817 270.055 34.0829 263.937C29.1841 257.818 18.4949 258.249 10.208 264.9C1.92103 271.55 -0.825602 281.901 4.07321 288.02C8.97202 294.138 19.6612 293.707 27.9482 287.057Z" fill="white"/>
<path d="M6.39791 289.575C6.34198 289.575 6.28555 289.556 6.2386 289.517C6.13273 289.429 6.11775 289.272 6.20614 289.165L29.8233 260.652C29.9112 260.547 30.0685 260.531 30.1749 260.619C30.2808 260.707 30.2957 260.865 30.2073 260.972L6.59018 289.485C6.54074 289.544 6.46982 289.575 6.39791 289.575Z" fill="white"/>
<path d="M43.0036 356.27C42.9491 356.27 42.8937 356.261 42.8393 356.242C42.5791 356.152 42.4412 355.867 42.5316 355.606L51.403 330.063C51.9354 328.531 53.1939 327.388 54.7695 327.007C56.3456 326.626 57.9856 327.068 59.1582 328.189L63.8481 332.675C64.0473 332.865 64.0548 333.182 63.8641 333.381C63.6733 333.581 63.3572 333.588 63.1579 333.397L58.468 328.912C57.5426 328.027 56.2482 327.678 55.0037 327.979C53.7602 328.279 52.7669 329.181 52.3464 330.391L43.475 355.934C43.4031 356.14 43.2103 356.27 43.0036 356.27V356.27Z" fill="#494949"/>
<path d="M76.9514 346.815C83.0928 341.948 82.7278 331.244 76.1362 322.907C69.5445 314.57 59.2224 311.757 53.081 316.623C46.9395 321.49 47.3045 332.194 53.8961 340.531C60.4878 348.869 70.8099 351.682 76.9514 346.815Z" fill="#E0AB3F"/>
<path d="M33.8231 360.754C33.5974 360.754 33.3926 360.599 33.3377 360.37L18.45 298.05C18.2393 297.167 17.5866 296.511 16.7051 296.295C15.8237 296.081 14.9422 296.362 14.3489 297.048L9.75995 302.357C9.57967 302.566 9.26355 302.589 9.0553 302.408C8.84705 302.228 8.82408 301.912 9.00436 301.703L13.5934 296.394C14.4249 295.432 15.7073 295.022 16.9418 295.323C18.1759 295.625 19.1262 296.58 19.4214 297.817L34.309 360.137C34.3729 360.405 34.2076 360.675 33.9394 360.739C33.9005 360.749 33.8615 360.753 33.8231 360.753V360.754Z" fill="#494949"/>
<path d="M28.3315 316.204C30.1412 305.726 25.3517 296.149 17.6337 294.813C9.91578 293.477 2.19206 300.887 0.382309 311.365C-1.42744 321.842 3.3621 331.419 11.0801 332.755C18.798 334.092 26.5217 326.681 28.3315 316.204Z" fill="#E0AB3F"/>
<path d="M37.8522 362.382C37.8317 362.382 37.8113 362.381 37.7903 362.379C37.5166 362.345 37.3218 362.095 37.3553 361.821L46.8619 284.546C47.0766 282.803 48.2502 281.398 49.9257 280.878C51.6007 280.359 53.3631 280.854 54.5237 282.17L65.3897 294.491C65.5724 294.698 65.5525 295.014 65.3457 295.197C65.139 295.38 64.8233 295.36 64.6411 295.153L53.7751 282.832C52.8777 281.815 51.5168 281.433 50.2214 281.834C48.9264 282.235 48.019 283.321 47.8537 284.668L38.3471 361.944C38.3161 362.197 38.1004 362.383 37.8522 362.383V362.382Z" fill="#494949"/>
<path d="M76.5353 301.337C80.3265 294.476 75.8659 284.741 66.5722 279.594C57.2786 274.448 46.6713 275.838 42.8801 282.7C39.089 289.561 43.5496 299.296 52.8432 304.443C62.1368 309.59 72.7442 308.199 76.5353 301.337Z" fill="#E0AB3F"/>
<path opacity="0.2" d="M76.9514 346.815C83.0928 341.948 82.7278 331.244 76.1362 322.907C69.5445 314.57 59.2224 311.757 53.081 316.623C46.9395 321.49 47.3045 332.194 53.8961 340.531C60.4878 348.869 70.8099 351.682 76.9514 346.815Z" fill="white"/>
<path opacity="0.5" d="M28.3315 316.204C30.1412 305.726 25.3517 296.149 17.6337 294.813C9.91578 293.477 2.19206 300.887 0.382309 311.365C-1.42744 321.842 3.3621 331.419 11.0801 332.755C18.798 334.092 26.5217 326.681 28.3315 316.204Z" fill="white"/>
<path opacity="0.5" d="M76.5353 301.337C80.3265 294.476 75.8659 284.741 66.5722 279.594C57.2786 274.448 46.6713 275.838 42.8801 282.7C39.089 289.561 43.5496 299.296 52.8432 304.443C62.1368 309.59 72.7442 308.199 76.5353 301.337Z" fill="white"/>
<path d="M50.0131 427.95H25.6937L21.6641 350.052H54.0427L50.0131 427.95Z" fill="#292A2E"/>
<path opacity="0.3" d="M50.0131 427.95H25.6937L21.6641 350.052H54.0427L50.0131 427.95Z" fill="white"/>
<path d="M76.953 347.064C76.8791 347.064 76.8062 347.031 76.7568 346.969L52.8859 316.778C52.8005 316.669 52.8185 316.512 52.9268 316.426C53.0357 316.34 53.1925 316.359 53.2779 316.467L77.1488 346.659C77.2342 346.767 77.2162 346.924 77.1078 347.01C77.0619 347.047 77.007 347.064 76.953 347.064V347.064Z" fill="white"/>
<path d="M74.9485 303.757C74.8976 303.757 74.8457 303.741 74.8017 303.709L44.2549 281.378C44.1435 281.297 44.119 281.14 44.2004 281.029C44.2818 280.917 44.4381 280.893 44.5495 280.974L75.0964 303.305C75.2077 303.386 75.2322 303.543 75.1508 303.654C75.1018 303.721 75.0254 303.757 74.9485 303.757Z" fill="white"/>
<path d="M9.83954 332.43C9.81806 332.43 9.79659 332.428 9.77511 332.422C9.64177 332.386 9.56287 332.249 9.59833 332.116L19.3227 295.641C19.3581 295.507 19.4974 295.429 19.6283 295.464C19.7616 295.499 19.8405 295.636 19.8051 295.77L10.0807 332.245C10.0508 332.357 9.94941 332.43 9.83954 332.43Z" fill="white"/>
<path d="M273.631 66.7177C273.631 66.7177 268.741 61.8489 268.688 52.1783C268.646 44.6906 274.762 50.3764 274.762 50.3764C274.762 50.3764 274.785 44.9846 278.565 46.0381C282.346 47.092 283.744 52.9513 283.744 52.9513" fill="#0C0C0C"/>
<path d="M298.402 49.3894C298.402 49.3894 317.243 54.0642 306.782 79.0572L305.074 78.9387L301.608 78.6982" fill="#0C0C0C"/>
<path d="M274.219 105.033C274.304 105.022 275.246 120.664 293.397 119.301C305.963 118.358 310.443 105.011 310.731 105.011C309.376 104.722 307.702 104.285 307.036 104.135C304.826 103.636 302.066 101.81 301.428 97.9624C301.061 95.745 301.684 84.402 301.492 82.1586L282.204 86.4689C282.473 91.2067 284.36 102.191 277.748 104.135C276.648 104.456 275.463 104.752 274.219 105.033Z" fill="#FF9E85"/>
<path opacity="0.22" d="M281.934 99.6459C282.207 98.7729 282.37 98.0134 282.514 96.6485C282.772 94.2076 282.635 91.9637 282.388 89.6773C286.285 89.1578 290.026 87.5174 293.049 85.0015C293.407 86.3259 295.376 92.1122 294.831 93.3706C293.8 95.7495 288.956 99.6454 281.934 99.6454L281.934 99.6459Z" fill="#0C0C0C"/>
<path d="M284.816 95.0835C292.448 95.4405 302.124 91.9086 303.656 81.6811L305.038 72.4525C306.57 62.2244 302.446 53.1278 292.827 51.6838C283.208 50.2399 274.777 57.4516 273.245 67.6797L272.633 71.7655C272.507 72.6065 272.369 74.1289 272.364 76.0083C272.355 79.7576 272.355 85.4609 274.333 89.5902C276.201 93.4886 279.94 94.856 284.816 95.0845V95.0835Z" fill="#FF9E85"/>
<path d="M276.631 74.335C277.217 74.335 277.692 73.8595 277.692 73.273C277.692 72.6865 277.217 72.2111 276.631 72.2111C276.045 72.2111 275.57 72.6865 275.57 73.273C275.57 73.8595 276.045 74.335 276.631 74.335Z" fill="#0A0A0A"/>
<path d="M283.33 81.5296C283.544 81.5296 283.728 81.3671 283.751 81.1491C283.776 80.9156 283.606 80.7066 283.373 80.6826L281.126 80.4476L282.509 75.9548C282.578 75.7308 282.452 75.4928 282.228 75.4238C282.005 75.3548 281.767 75.4803 281.698 75.7048L280.163 80.6916C280.126 80.8131 280.145 80.9446 280.215 81.0506C280.286 81.1566 280.399 81.2256 280.525 81.2391L283.286 81.5281C283.301 81.5296 283.316 81.5306 283.33 81.5306L283.33 81.5296Z" fill="#0A0A0A"/>
<path d="M283.826 86.3394C287.671 86.3394 288.815 84.013 288.867 83.904C288.967 83.6921 288.876 83.4391 288.664 83.3386C288.454 83.2386 288.202 83.3286 288.101 83.5391C288.053 83.6381 286.879 85.923 282.647 85.4165C282.41 85.387 282.203 85.555 282.175 85.788C282.147 86.021 282.313 86.2319 282.546 86.2599C283.002 86.3144 283.429 86.3394 283.826 86.3394Z" fill="#0A0A0A"/>
<path d="M287.038 69.4236C286.936 69.7401 288.085 70.2131 289.702 70.6466C291.318 71.0801 292.782 71.3931 292.892 70.9941C293.03 70.4901 291.826 69.3036 290.209 68.8702C288.593 68.4367 287.198 68.9262 287.038 69.4236Z" fill="#0A0A0A"/>
<path d="M287.268 75.0119C287.854 75.0119 288.328 74.5364 288.328 73.9499C288.328 73.3634 287.854 72.8879 287.268 72.8879C286.682 72.8879 286.207 73.3634 286.207 73.9499C286.207 74.5364 286.682 75.0119 287.268 75.0119Z" fill="#0A0A0A"/>
<path d="M274.154 69.6456C274.189 69.9761 275.432 69.9416 277.085 69.6811C278.738 69.4206 280.202 69.1121 280.141 68.7031C280.063 68.1861 278.654 67.5542 277.001 67.8146C275.348 68.0751 274.099 69.1256 274.154 69.6456Z" fill="#0A0A0A"/>
<path d="M302.592 84.7074C305.515 85.1464 308.353 82.371 308.792 79.4446C309.23 76.5183 307.102 74.5484 304.179 74.1094L302.379 75.8443L300.078 84.3299L302.592 84.7074Z" fill="#FF9E85"/>
<path d="M301.226 79.6391C300.732 79.6161 300.349 79.1997 300.369 78.7047C300.503 75.5063 300.678 64.7393 297.049 63.4663C294.206 62.4689 286.546 65.6497 280.149 63.4943C277.35 62.5514 274.525 62.8893 274.061 64.2103C273.877 64.7333 273.145 56.7551 278.448 51.5033C282.671 47.322 294.577 47.611 299.702 49.8744C313.892 56.1426 304.695 74.8303 304.695 74.8303L303.543 79.0427C303.432 79.4491 303.054 79.7246 302.633 79.7046L301.226 79.6386V79.6391Z" fill="#0C0C0C"/>
<path d="M288.599 52.9634C289.703 49.8608 288.89 46.7372 286.785 45.9866C284.68 45.236 282.078 47.1427 280.975 50.2452C279.871 53.3478 280.683 56.4714 282.789 57.222C284.894 57.9726 287.495 56.066 288.599 52.9634Z" fill="#0C0C0C"/>
<path d="M420.662 148.4L422.066 147.242C422.959 146.443 423.163 145.057 422.412 144.123C421.612 143.126 420.152 143.015 419.212 143.856L402.547 158.667L407.154 164.134C410.081 167.608 414.82 168.956 419.134 167.542L428.681 164.394C429.698 164.061 430.404 163.067 430.269 162.005C430.138 160.979 420.662 148.4 420.662 148.4Z" fill="#FF9E85"/>
<path d="M410.701 148.514L364.729 162.776L336.696 115.232L312.746 129.252L348.087 186.434L348.311 186.72C352.002 191.307 358.325 193.278 364.171 191.17L418.969 171.297L410.701 148.515L410.701 148.514Z" fill="#004E02"/>
<path d="M438.757 398.713L400.428 400.516L385.645 148.571L423.974 146.768L438.757 398.713Z" fill="#004E02"/>
<path opacity="0.5" d="M438.757 398.713L400.428 400.516L385.645 148.571L423.974 146.768L438.757 398.713Z" fill="white"/>
<path d="M422.673 119.006L384.344 120.81L385.647 148.568L423.976 146.764L422.673 119.006Z" fill="#262626"/>
<path d="M438.761 398.712C438.761 398.712 433.502 407.855 428.762 416.03C425.003 422.514 421.571 428.39 421.349 428.609C421.121 428.837 416.837 423.133 412.206 416.807C406.576 409.122 400.43 400.515 400.43 400.515L438.761 398.712L438.761 398.712Z" fill="#004E02"/>
<path opacity="0.9" d="M438.761 398.712C438.761 398.712 433.502 407.855 428.762 416.03C425.003 422.514 421.571 428.39 421.349 428.609C421.121 428.837 416.837 423.133 412.206 416.807C406.576 409.122 400.43 400.515 400.43 400.515L438.761 398.712L438.761 398.712Z" fill="white"/>
<path d="M428.76 416.03C425.001 422.514 421.568 428.39 421.347 428.609C421.119 428.837 416.835 423.133 412.203 416.807L428.76 416.03Z" fill="#262626"/>
<path d="M426.822 399.201L411.363 147.411L413.112 147.323L428.57 399.113L426.822 399.201Z" fill="white"/>
<path d="M411.826 399.913L396.367 148.123L398.116 148.035L413.575 399.824L411.826 399.913Z" fill="white"/>
<path d="M418.209 160.148C418.209 158.985 418.991 158.287 419.822 158.009C419.806 157.974 419.741 157.899 419.804 157.874L417.983 157.551C416.882 157.356 416.013 156.399 416.073 155.282C416.134 154.123 417.056 153.273 418.131 153.217C418.118 153.199 418.122 153.175 418.116 153.154L417.368 153.021C416.332 152.837 415.507 151.968 415.492 150.915C415.472 149.498 416.726 148.485 418.047 148.72L419.774 149.026C419.774 149.017 419.766 149.01 419.768 149C419.769 148.988 419.782 148.982 419.786 148.97C418.87 148.585 418.307 147.608 418.488 146.588C418.627 145.319 420.123 144.848 421.24 145.046L424.709 145.943C425.797 146.225 426.669 147.032 427.038 148.095C428.607 152.619 432.426 164.535 428.862 163.903L420.09 162.347C419.078 162.167 418.211 161.178 418.211 160.148L418.209 160.148Z" fill="#FF9E85"/>
<path d="M309.287 397.651C309.287 397.651 315.352 407.905 307.594 415.66C299.836 423.415 307.395 428.371 307.395 428.371L338.692 400.601L324.833 384.947L309.287 397.651Z" fill="#004E02"/>
<path d="M256.034 195.514C256.034 195.514 252.509 297.246 252.957 302.21C254.652 320.991 309.858 406.092 309.858 406.092L330.415 388.52L304.165 335.283L287.569 298.19C287.569 298.19 290.426 266.283 298.126 236.656C302.077 221.453 304.425 205.878 305.202 190.189L256.034 195.514V195.514Z" fill="#262626"/>
<path d="M308.275 406.659C308.275 406.659 306.02 418.36 295.076 419.012C284.133 419.664 286.506 428.393 286.506 428.393H328.326V407.475L308.275 406.659Z" fill="#004E02"/>
<path d="M331.16 193.203C331.16 193.203 331.029 189.685 331.056 197.665C331.16 227.428 330.17 414.127 330.17 414.127L302.69 413.896L286.043 191.994L331.16 193.203V193.203Z" fill="#262626"/>
<path d="M291.686 267.636L289.432 233.133C289.432 233.133 287.117 247.477 287.117 259.841C287.117 265.884 288.361 289.81 288.361 289.81L291.686 267.636Z" fill="#0A0A0A"/>
<path d="M295.35 315.586L301.066 392.283L295.716 383.665L290.246 304.178L295.35 315.586Z" fill="#0A0A0A"/>
<path d="M252.051 139.051C252.618 145.716 255.374 187.304 255.919 195.514H331.015C331.439 188.109 333.344 155.728 334.953 141.247C336.488 127.428 339.501 120.01 337.293 115.925C333.684 109.248 323.823 105.89 317.099 104.978C312.993 104.422 306.818 104.023 306.818 104.023C306.818 104.023 306.295 114.613 293.827 115.202C276.854 116.003 277.988 104.023 277.904 104.023C271.742 104.023 260.08 105.499 255.604 108.546C245.541 115.397 250.848 124.924 252.051 139.05V139.051Z" fill="#004E02"/>
<path d="M249.128 206.378C250.486 205.899 251.01 204.345 250.322 203.165L251.769 205.646C252.373 206.681 253.689 207.157 254.753 206.607C255.889 206.021 256.289 204.611 255.653 203.521L256.308 204.644C256.847 205.569 257.966 206.051 258.975 205.695C260.332 205.216 260.858 203.662 260.169 202.482L259.023 200.515C259.639 201.571 260.993 201.928 262.048 201.311C263.208 200.732 263.132 199.136 262.551 198.139L260.392 194.113L261.818 195.244C262.786 195.95 264.182 195.857 264.937 194.926C265.742 193.933 265.543 192.481 264.524 191.737L251.548 183.544L242.185 184.203C239.409 187.799 239.09 192.721 241.379 196.646L246.462 205.327C247.001 206.252 248.12 206.734 249.129 206.378H249.128Z" fill="#FF9E85"/>
<path d="M257.56 198.054C257.551 197.971 257.592 197.888 257.67 197.847C257.772 197.793 257.897 197.833 257.95 197.934L259.38 200.661C259.433 200.762 259.394 200.888 259.293 200.942C259.191 200.995 259.065 200.956 259.012 200.854L257.582 198.128C257.57 198.104 257.562 198.079 257.56 198.054Z" fill="#FF9E85"/>
<path d="M253.708 200.084C253.699 200.002 253.74 199.919 253.817 199.878C253.918 199.824 254.044 199.862 254.098 199.963L256.088 203.688C256.142 203.789 256.105 203.915 256.003 203.97C255.902 204.024 255.776 203.986 255.722 203.884L253.731 200.159C253.718 200.135 253.711 200.11 253.708 200.084H253.708Z" fill="#FF9E85"/>
<path d="M249.525 202.259C249.516 202.175 249.558 202.091 249.637 202.05C249.74 201.999 249.865 202.04 249.917 202.142L250.816 203.923C250.867 204.026 250.826 204.151 250.724 204.203C250.621 204.254 250.496 204.213 250.445 204.111L249.546 202.33C249.534 202.307 249.527 202.283 249.525 202.258V202.259Z" fill="#FF9E85"/>
<path opacity="0.2" d="M257.56 198.054C257.551 197.971 257.592 197.888 257.67 197.847C257.772 197.793 257.897 197.833 257.95 197.934L259.38 200.661C259.433 200.762 259.394 200.888 259.293 200.942C259.191 200.995 259.065 200.956 259.012 200.854L257.582 198.128C257.57 198.104 257.562 198.079 257.56 198.054Z" fill="#0C0C0C"/>
<path opacity="0.2" d="M253.708 200.084C253.699 200.002 253.74 199.919 253.817 199.878C253.918 199.824 254.044 199.862 254.098 199.963L256.088 203.688C256.142 203.789 256.105 203.915 256.003 203.97C255.902 204.024 255.776 203.986 255.722 203.884L253.731 200.159C253.718 200.135 253.711 200.11 253.708 200.084H253.708Z" fill="#0C0C0C"/>
<path opacity="0.2" d="M249.525 202.259C249.516 202.175 249.558 202.091 249.637 202.05C249.74 201.999 249.865 202.04 249.917 202.142L250.816 203.923C250.867 204.026 250.826 204.151 250.724 204.203C250.621 204.254 250.496 204.213 250.445 204.111L249.546 202.33C249.534 202.307 249.527 202.283 249.525 202.258V202.259Z" fill="#0C0C0C"/>
<path d="M268.895 134.217C268.895 134.217 262.867 105.927 256.03 108.282C250.603 110.151 209.841 143.782 208.604 145C202.93 150.592 202.857 159.73 208.443 165.411L240.169 201.755L258.48 184.571L234.403 158.524L268.895 134.217Z" fill="#004E02"/>
<path d="M252.468 146.47C252.368 146.47 252.283 146.393 252.275 146.291L251.469 135.106C251.461 135 251.541 134.907 251.647 134.899C251.759 134.892 251.846 134.971 251.854 135.077L252.66 146.262C252.668 146.369 252.589 146.462 252.483 146.469C252.477 146.469 252.473 146.47 252.468 146.47Z" fill="#0C0C0C"/>
<path d="M333.252 163.525C333.247 163.525 333.243 163.525 333.238 163.525C333.132 163.52 333.049 163.429 333.055 163.323L334.388 136.535C334.393 136.428 334.493 136.345 334.59 136.352C334.696 136.357 334.779 136.448 334.773 136.554L333.441 163.342C333.436 163.444 333.352 163.523 333.252 163.525Z" fill="#0C0C0C"/>
<path d="M441.089 429H10.8704C10.6577 429 10.4844 428.827 10.4844 428.614C10.4844 428.4 10.6572 428.227 10.8704 428.227H441.089C441.302 428.227 441.475 428.4 441.475 428.614C441.475 428.827 441.302 429 441.089 429Z" fill="#3F3F3F"/>
</g>
<defs>
<clipPath id="clip0_1159_2274">
<rect width="453" height="429" fill="white"/>
</clipPath>
</defs>
</svg>
