<svg width="32" height="31" viewBox="0 0 32 31" fill="none" xmlns="http://www.w3.org/2000/svg">
<rect width="32" height="31" fill="white"/>
<circle cx="16.1397" cy="15.1397" r="15.1397" fill="#EEFFEF"/>
<path d="M8.64727 10.5913H7.42188V22.3981H8.64727V10.5913Z" fill="#002017"/>
<path d="M19.9614 14.2012C19.449 13.6359 18.7995 13.1749 18.0622 12.8644V7.87593H16.8368V12.5074C16.6011 12.467 16.3603 12.4413 16.1149 12.4313C15.7159 12.4155 15.3169 12.4429 14.9263 12.5103V8.77378H13.7009V12.8661C13.168 13.0876 12.6711 13.3894 12.2357 13.7631C12.0742 13.9015 11.924 14.0482 11.784 14.202V9.6255H10.5586V22.3983H11.784V17.2971C11.7742 16.2542 12.2366 15.2782 13.0859 14.5495C13.8979 13.8533 14.9707 13.4775 16.0593 13.5224C18.2162 13.6097 19.9642 15.2915 19.9558 17.271H19.9614V22.3983H21.1868V7.19922H19.9614V14.2016V14.2012Z" fill="#002017"/>
<path d="M24.2996 6.42432H23.0742V22.3978H24.2996V6.42432Z" fill="#002017"/>
<path d="M15.9802 15.2282C15.4011 15.2062 14.8154 15.4036 14.3838 15.774C13.975 16.1248 13.7309 16.6053 13.7025 17.1066H13.6992V22.3982H14.9246V17.2126C14.9223 16.9653 15.0324 16.7338 15.234 16.5605C15.4244 16.3971 15.6731 16.3094 15.9237 16.3194C16.4281 16.3397 16.8364 16.7371 16.8346 17.2056V22.3982H18.06V17.132H18.0581C18.0175 16.1203 17.1024 15.274 15.9792 15.2286L15.9802 15.2282Z" fill="#002017"/>
<path d="M22.5 19C24.433 19 26 17.433 26 15.5C26 13.567 24.433 12 22.5 12C20.567 12 19 13.567 19 15.5C19 17.433 20.567 19 22.5 19Z" fill="#96B4FF"/>
</svg>
