<svg width="6" height="6" viewBox="0 0 6 6" fill="none" xmlns="http://www.w3.org/2000/svg">
<g clip-path="url(#clip0_510_4941)">
<path d="M4.3144 2.52583C4.18488 2.52583 4.09853 2.61218 4.09853 2.7417V4.03695C4.09853 4.16648 4.01218 4.25283 3.88266 4.25283H1.29216C1.16263 4.25283 1.07628 4.16648 1.07628 4.03695V1.44645C1.07628 1.31693 1.16263 1.23058 1.29216 1.23058H2.58741C2.71693 1.23058 2.80328 1.14423 2.80328 1.0147C2.80328 0.885178 2.71693 0.798828 2.58741 0.798828H1.29216C0.925169 0.798828 0.644531 1.07947 0.644531 1.44645V4.03695C0.644531 4.40394 0.925169 4.68458 1.29216 4.68458H3.88266C4.24964 4.68458 4.53028 4.40394 4.53028 4.03695V2.7417C4.53028 2.63376 4.44393 2.52583 4.3144 2.52583Z" fill="#0A3323"/>
<path d="M3.64837 1.35969H4.30864C4.37442 1.35969 4.42459 1.37318 4.45916 1.40017C4.49374 1.42715 4.51102 1.46383 4.51102 1.51021C4.51102 1.55153 4.49711 1.58653 4.46928 1.6152C4.4423 1.64387 4.40098 1.6582 4.34532 1.6582H3.41436C3.35112 1.6582 3.30179 1.64092 3.26637 1.60634C3.23095 1.57093 3.21325 1.52961 3.21325 1.48238C3.21325 1.45203 3.22463 1.41197 3.2474 1.36222C3.27017 1.31162 3.29504 1.27199 3.32203 1.24332C3.43418 1.12695 3.53537 1.02744 3.6256 0.944804C3.71583 0.861321 3.78034 0.806509 3.81913 0.780368C3.88828 0.731459 3.94562 0.68255 3.99115 0.63364C4.03753 0.583888 4.07253 0.533292 4.09614 0.481853C4.12059 0.429571 4.13282 0.378554 4.13282 0.328801C4.13282 0.274833 4.11975 0.226767 4.09361 0.184604C4.06831 0.141597 4.03332 0.108289 3.98862 0.0846773C3.94477 0.0610659 3.89671 0.0492603 3.84443 0.0492603C3.73396 0.0492603 3.6471 0.0977478 3.58386 0.194723C3.57543 0.207372 3.56109 0.241946 3.54085 0.298444C3.52146 0.354943 3.49911 0.398371 3.47381 0.428728C3.44936 0.459085 3.4131 0.474264 3.36503 0.474264C3.32287 0.474264 3.28787 0.46035 3.26005 0.432523C3.23222 0.404695 3.2183 0.366748 3.2183 0.318682C3.2183 0.260497 3.23138 0.199782 3.25752 0.136538C3.28366 0.0732932 3.32245 0.0159515 3.37389 -0.0354875C3.42617 -0.0869264 3.49194 -0.128246 3.57121 -0.159447C3.65132 -0.191491 3.74492 -0.207513 3.85202 -0.207513C3.98103 -0.207513 4.09108 -0.187275 4.18215 -0.146798C4.24118 -0.119814 4.29304 -0.0827101 4.33773 -0.0354875C4.38243 0.0117352 4.417 0.0665471 4.44146 0.128948C4.46675 0.190507 4.4794 0.254594 4.4794 0.321212C4.4794 0.425777 4.45326 0.521065 4.40098 0.607078C4.34954 0.692247 4.29684 0.759286 4.24287 0.808196C4.1889 0.856261 4.09825 0.932155 3.97092 1.03588C3.84443 1.1396 3.75757 1.22013 3.71035 1.27747C3.69011 1.30024 3.66945 1.32764 3.64837 1.35969Z" fill="#0A3323"/>
</g>
<defs>
<clipPath id="clip0_510_4941">
<rect width="5.181" height="5.181" fill="white"/>
</clipPath>
</defs>
</svg>
