<svg width="7" height="7" viewBox="0 0 7 7" fill="none" xmlns="http://www.w3.org/2000/svg">
<g clip-path="url(#clip0_510_4982)">
<path d="M2.72778 3.67439H3.1221V2.88575H3.7793V3.67439H4.17362V2.45857L3.4507 1.97882L2.72778 2.45857V3.67439ZM3.4507 5.52113C4.03341 4.99098 4.46388 4.51013 4.74209 4.07857C5.02031 3.64701 5.15942 3.26693 5.15942 2.93833C5.15942 2.42133 4.99402 1.99853 4.66323 1.66993C4.33244 1.34133 3.92826 1.17703 3.4507 1.17703C2.97313 1.17703 2.56895 1.34133 2.23816 1.66993C1.90737 1.99853 1.74198 2.42133 1.74198 2.93833C1.74198 3.26693 1.88437 3.64701 2.16916 4.07857C2.45394 4.51013 2.88112 4.99098 3.4507 5.52113ZM3.4507 6.04031C2.7453 5.44007 2.21845 4.88255 1.87013 4.36774C1.52181 3.85293 1.34766 3.37646 1.34766 2.93833C1.34766 2.28113 1.55906 1.75756 1.98185 1.36762C2.40465 0.977684 2.89427 0.782715 3.4507 0.782715C4.00713 0.782715 4.49674 0.977684 4.91954 1.36762C5.34234 1.75756 5.55374 2.28113 5.55374 2.93833C5.55374 3.37646 5.37958 3.85293 5.03126 4.36774C4.68295 4.88255 4.15609 5.44007 3.4507 6.04031Z" fill="#0A3323"/>
</g>
<defs>
<clipPath id="clip0_510_4982">
<rect width="6.30912" height="6.30912" fill="white" transform="translate(0.296875 0.257324)"/>
</clipPath>
</defs>
</svg>
