<svg width="8" height="7" viewBox="0 0 8 7" fill="none" xmlns="http://www.w3.org/2000/svg">
<g clip-path="url(#clip0_510_4961)">
<path d="M2.43359 5.55899V0.827148H4.32633C4.76008 0.827148 5.11497 0.971732 5.41728 1.2609C5.71959 1.55007 5.85103 1.9181 5.85103 2.35185C5.85103 2.7856 5.70645 3.14049 5.41728 3.42966C5.12811 3.71883 4.76008 3.86341 4.32633 3.86341H3.22223V5.55899H2.43359ZM3.22223 3.08792H4.32633C4.53663 3.08792 4.70751 3.0222 4.85209 2.87761C4.99667 2.73303 5.06239 2.56216 5.06239 2.35185C5.06239 2.14155 4.99667 1.97068 4.85209 1.82609C4.70751 1.68151 4.53663 1.61579 4.32633 1.61579H3.22223V3.08792Z" fill="#0A3323"/>
<path d="M0.855469 1.28725V0.432894C0.855469 0.327742 0.894901 0.235734 0.973765 0.15687C1.05263 0.0780062 1.14464 0.0385742 1.24979 0.0385742H2.10415V0.432894H1.24979V1.28725H0.855469Z" fill="#0A3323"/>
<path d="M1.24979 6.34731C1.14464 6.34731 1.05263 6.30788 0.973765 6.22902C0.894901 6.15015 0.855469 6.05814 0.855469 5.95299V5.09863H1.24979V5.95299H2.10415V6.34731H1.24979Z" fill="#0A3323"/>
<path d="M6.77233 1.28725V0.432894H5.91797V0.0385742H6.77233C6.87748 0.0385742 6.96949 0.0780062 7.04835 0.15687C7.12722 0.235734 7.16665 0.327742 7.16665 0.432894V1.28725H6.77233Z" fill="#0A3323"/>
<path d="M5.91797 6.34731V5.95299H6.77233V5.09863H7.16665V5.95299C7.16665 6.05814 7.12722 6.15015 7.04835 6.22902C6.96949 6.30788 6.87748 6.34731 6.77233 6.34731H5.91797Z" fill="#0A3323"/>
</g>
<defs>
<clipPath id="clip0_510_4961">
<rect width="6.30912" height="6.30912" fill="white" transform="translate(0.855469 0.0385742)"/>
</clipPath>
</defs>
</svg>
