<svg width="7" height="7" viewBox="0 0 7 7" fill="none" xmlns="http://www.w3.org/2000/svg">
<path d="M1.95656 4.898C1.90398 4.898 1.85798 4.87828 1.81854 4.83885C1.77911 4.79942 1.7594 4.75342 1.7594 4.70084C1.7594 4.64826 1.77911 4.60226 1.81854 4.56283C1.85798 4.5234 1.90398 4.50368 1.95656 4.50368C2.00913 4.50368 2.05514 4.5234 2.09457 4.56283C2.134 4.60226 2.15372 4.64826 2.15372 4.70084C2.15372 4.75342 2.134 4.79942 2.09457 4.83885C2.05514 4.87828 2.00913 4.898 1.95656 4.898ZM3.15266 4.898C3.10008 4.898 3.05408 4.87828 3.01465 4.83885C2.97522 4.79942 2.9555 4.75342 2.9555 4.70084C2.9555 4.64826 2.97522 4.60226 3.01465 4.56283C3.05408 4.5234 3.10008 4.50368 3.15266 4.50368C3.20524 4.50368 3.25124 4.5234 3.29067 4.56283C3.3301 4.60226 3.34982 4.64826 3.34982 4.70084C3.34982 4.75342 3.3301 4.79942 3.29067 4.83885C3.25124 4.87828 3.20524 4.898 3.15266 4.898ZM4.34876 4.898C4.29619 4.898 4.25018 4.87828 4.21075 4.83885C4.17132 4.79942 4.1516 4.75342 4.1516 4.70084C4.1516 4.64826 4.17132 4.60226 4.21075 4.56283C4.25018 4.5234 4.29619 4.50368 4.34876 4.50368C4.40134 4.50368 4.44734 4.5234 4.48678 4.56283C4.52621 4.60226 4.54592 4.64826 4.54592 4.70084C4.54592 4.75342 4.52621 4.79942 4.48678 4.83885C4.44734 4.87828 4.40134 4.898 4.34876 4.898ZM1.3125 3.9122V3.51788C1.3125 3.04908 1.47132 2.63942 1.78897 2.28892C2.10662 1.93841 2.49546 1.73906 2.9555 1.69086V1.10596H3.34982V1.69086C3.80986 1.73906 4.1987 1.93841 4.51635 2.28892C4.834 2.63942 4.99282 3.04908 4.99282 3.51788V3.9122H1.3125ZM1.70682 3.51788H4.5985C4.5985 3.11918 4.45767 2.77853 4.176 2.49593C3.89433 2.21334 3.55368 2.07204 3.15405 2.07204C2.75442 2.07204 2.41331 2.21301 2.13071 2.49495C1.84812 2.77689 1.70682 3.11786 1.70682 3.51788ZM1.95656 5.8378C1.90398 5.8378 1.85798 5.81808 1.81854 5.77865C1.77911 5.73922 1.7594 5.69321 1.7594 5.64064C1.7594 5.58806 1.77911 5.54206 1.81854 5.50262C1.85798 5.46319 1.90398 5.44348 1.95656 5.44348C2.00913 5.44348 2.05514 5.46319 2.09457 5.50262C2.134 5.54206 2.15372 5.58806 2.15372 5.64064C2.15372 5.69321 2.134 5.73922 2.09457 5.77865C2.05514 5.81808 2.00913 5.8378 1.95656 5.8378ZM3.15266 5.8378C3.10008 5.8378 3.05408 5.81808 3.01465 5.77865C2.97522 5.73922 2.9555 5.69321 2.9555 5.64064C2.9555 5.58806 2.97522 5.54206 3.01465 5.50262C3.05408 5.46319 3.10008 5.44348 3.15266 5.44348C3.20524 5.44348 3.25124 5.46319 3.29067 5.50262C3.3301 5.54206 3.34982 5.58806 3.34982 5.64064C3.34982 5.69321 3.3301 5.73922 3.29067 5.77865C3.25124 5.81808 3.20524 5.8378 3.15266 5.8378ZM4.34876 5.8378C4.29619 5.8378 4.25018 5.81808 4.21075 5.77865C4.17132 5.73922 4.1516 5.69321 4.1516 5.64064C4.1516 5.58806 4.17132 5.54206 4.21075 5.50262C4.25018 5.46319 4.29619 5.44348 4.34876 5.44348C4.40134 5.44348 4.44734 5.46319 4.48678 5.50262C4.52621 5.54206 4.54592 5.58806 4.54592 5.64064C4.54592 5.69321 4.52621 5.73922 4.48678 5.77865C4.44734 5.81808 4.40134 5.8378 4.34876 5.8378Z" fill="#0A3323"/>
</svg>
