<svg width="7" height="7" viewBox="0 0 7 7" fill="none" xmlns="http://www.w3.org/2000/svg">
<g clip-path="url(#clip0_510_4975)">
<path d="M5.39131 4.5666V2.45042L4.01119 1.48434L2.63107 2.45042V3.29821H2.23675V2.25326L4.01119 0.984863L5.78563 2.25326V4.5666H5.39131ZM4.14263 2.82502H4.40551V2.56214H4.14263V2.82502ZM3.61687 2.82502H3.87975V2.56214H3.61687V2.82502ZM4.14263 3.35078H4.40551V3.0879H4.14263V3.35078ZM3.61687 3.35078H3.87975V3.0879H3.61687V3.35078ZM4.05062 6.4922L2.00673 5.90729V6.28189H0.59375V3.69253H2.6245L4.30036 4.32344C4.41865 4.36725 4.51833 4.43845 4.59938 4.53703C4.68044 4.63561 4.72096 4.77691 4.72096 4.96092H5.47017C5.65419 4.96092 5.80754 5.02664 5.93021 5.15808C6.05289 5.28952 6.11423 5.46697 6.11423 5.69041V5.86129L4.05062 6.4922ZM0.98807 5.88757H1.60584V4.08685H0.98807V5.88757ZM4.02433 6.08473L5.70676 5.57212C5.68048 5.48887 5.64762 5.43192 5.60818 5.40125C5.56875 5.37058 5.52275 5.35524 5.47017 5.35524H4.10977C3.97833 5.35524 3.85675 5.34648 3.74502 5.32895C3.6333 5.31143 3.52705 5.28733 3.42628 5.25666L2.89395 5.09236L3.03853 4.71119L3.51829 4.86891C3.62782 4.90397 3.73188 4.92806 3.83046 4.94121C3.92904 4.95435 4.08567 4.96092 4.30036 4.96092C4.30036 4.90835 4.2905 4.85687 4.27078 4.80648C4.25107 4.7561 4.21711 4.71995 4.16892 4.69804L2.55878 4.08685H2.00673V5.49325L4.02433 6.08473Z" fill="#0A3323"/>
</g>
<defs>
<clipPath id="clip0_510_4975">
<rect width="6.30912" height="6.30912" fill="white" transform="translate(0.332031 0.59082)"/>
</clipPath>
</defs>
</svg>
