<svg width="7" height="7" viewBox="0 0 7 7" fill="none" xmlns="http://www.w3.org/2000/svg">
<g clip-path="url(#clip0_510_4952)">
<path d="M1.40625 5.91201V5.5177H2.01087V1.18018H4.57395V1.47592H5.54004V5.5177H6.13809V5.91201H5.14572V1.87024H4.57395V5.91201H1.40625ZM3.58158 3.80898C3.65606 3.80898 3.7185 3.78378 3.76888 3.7334C3.81927 3.68301 3.84446 3.62058 3.84446 3.5461C3.84446 3.47161 3.81927 3.40918 3.76888 3.35879C3.7185 3.30841 3.65606 3.28322 3.58158 3.28322C3.5071 3.28322 3.44466 3.30841 3.39428 3.35879C3.34389 3.40918 3.3187 3.47161 3.3187 3.5461C3.3187 3.62058 3.34389 3.68301 3.39428 3.7334C3.44466 3.78378 3.5071 3.80898 3.58158 3.80898ZM2.40519 5.5177H4.17963V1.5745H2.40519V5.5177Z" fill="#0A3323"/>
</g>
<defs>
<clipPath id="clip0_510_4952">
<rect width="6.30912" height="6.30912" fill="white" transform="translate(0.617188 0.391602)"/>
</clipPath>
</defs>
</svg>
